<svg xmlns="http://www.w3.org/2000/svg" xmlns:xlink="http://www.w3.org/1999/xlink" xmlns:lucid="lucid" width="1821.41" height="1415.15"><g transform="translate(0 0)" lucid:page-tab-id="dqyt1i6pI6E4"><path d="M20 340V180h40v160zM20 340h40v200H20zM20 540h40v178.04H20zM20 718.04h40v217.2H20z" stroke="#c2c2c2" stroke-width="2" fill="#e9e9ea"/><path d="M20 935.23h40V1220H20zM60 1373.84H20V1220h40z" stroke="#c2c2c2" stroke-width="2" fill="#e9e9ea"/><path d="M60 180h1743.14v160H60zM60 340h1743.14v200H60zM60 540h1743.14v178.04H60zM60 718.04h1743.14v217.2H60z" stroke="#c2c2c2" stroke-width="2" fill="#fff"/><path d="M60 935.23h1743.14V1220H60zM1803.14 1220v153.84H60V1220z" stroke="#c2c2c2" stroke-width="2" fill="#fff"/><use xlink:href="#a" transform="matrix(-1.8369701987210297e-16,-1,1,-1.8369701987210297e-16,20,340.00000000000045) translate(52.80555555555556 24)"/><use xlink:href="#b" transform="matrix(-1.8369701987210297e-16,-1,1,-1.8369701987210297e-16,20,540) translate(41.25 24)"/><use xlink:href="#c" transform="matrix(-1.8369701987210297e-16,-1,1,-1.8369701987210297e-16,20,718.0397234297973) translate(43.02777777777777 24)"/><use xlink:href="#d" transform="matrix(-1.8369701987210297e-16,-1,1,-1.8369701987210297e-16,20,935.22922920089) translate(62.47222222222222 24)"/><use xlink:href="#e" transform="matrix(-1.8369701987210297e-16,-1,1,-1.8369701987210297e-16,20,1219.9999999999993) translate(100.91666666666666 24)"/><use xlink:href="#f" transform="matrix(-1.8369701987210297e-16,-1,1,-1.8369701987210297e-16,20.000000000000227,1373.8427315575352) translate(35.05555555555556 24)"/><use xlink:href="#g" transform="matrix(-1.8369701987210297e-16,-1,1,-1.8369701987210297e-16,20.000000000000227,1373.8427315575352) translate(59.111111111111114 24)"/><path d="M247.54 220c14.8 0 26.8 17.37 26.8 38.8 0 21.43-12 38.8-26.8 38.8H167.1c-14.8 0-26.8-17.37-26.8-38.8 0-21.43 12-38.8 26.8-38.8z" stroke="#000" stroke-opacity="0" stroke-width="2" fill="#225798"/><use xlink:href="#h" transform="matrix(1,0,0,1,145.09888131372742,224.8) translate(16.049999999999994 17.6)"/><use xlink:href="#i" transform="matrix(1,0,0,1,145.09888131372742,224.8) translate(88 17.6)"/><use xlink:href="#j" transform="matrix(1,0,0,1,145.09888131372742,224.8) translate(30.22499999999999 39.2)"/><use xlink:href="#k" transform="matrix(1,0,0,1,145.09888131372742,224.8) translate(15.074999999999992 60.800000000000004)"/><path d="M207.32 298.1v60.44" stroke="#666" fill="none"/><path d="M207.82 298.1h-1v-.5h1z" fill="#666"/><path d="M207.32 373.3l-4.63-14.26h9.26z" stroke="#666" fill="#666"/><path d="M740 395.17c0-4.42 3.58-8 8-8h118.05c4.42 0 8 3.58 8 8v57.23c0 4.42-3.58 8-8 8H748c-4.42 0-8-3.58-8-8z" stroke="#000" stroke-opacity="0" stroke-width="2" fill="#3278ca"/><use xlink:href="#l" transform="matrix(1,0,0,1,744.8,391.96586087356656) translate(35.525 34.4)"/><path d="M200.92 378.3c3.54-2.64 9.27-2.64 12.8 0L267.95 419c3.53 2.65 3.53 6.95 0 9.6l-54.23 40.67c-3.53 2.65-9.26 2.65-12.8 0l-54.22-40.67c-3.54-2.65-3.54-6.95 0-9.6z" stroke="#4397ff" stroke-width="3" fill="#fff"/><use xlink:href="#m" transform="matrix(1,0,0,1,145.0988813137274,378.3126350871259) translate(28.529999999999998 37.15)"/><use xlink:href="#n" transform="matrix(1,0,0,1,145.0988813137274,378.3126350871259) translate(29.554999999999996 58.75)"/><path d="M345.74 395.17c0-4.42 3.58-8 8-8H471.8c4.4 0 8 3.58 8 8v57.23c0 4.42-3.6 8-8 8H353.73c-4.42 0-8-3.58-8-8z" stroke="#000" stroke-opacity="0" stroke-width="2" fill="#4397ff"/><use xlink:href="#o" transform="matrix(1,0,0,1,350.53536558854904,391.96586087356644) translate(4.302469135802468 34.22222222222222)"/><use xlink:href="#p" transform="matrix(1,0,0,1,350.53536558854904,391.96586087356644) translate(61.48765432098765 34.22222222222222)"/><path d="M345.24 424.28H311.2v-1h34.04zM287.88 428.42l-14.27-4.64 14.28-4.63z" fill="#666"/><path d="M287.92 428.96L272 423.78l15.92-5.17zm-12.7-5.18l12.16 3.95v-7.9zM345.74 424.28h-.52v-1h.52z" fill="#666"/><use xlink:href="#q" transform="matrix(1,0,0,1,287.9160286521229,414.44825438447964) translate(0 12.444444444444446)"/><path d="M207.32 473.14v86.36" stroke="#666" fill="none"/><path d="M207.82 472.64v.5h-1v-.5zM207.82 560h-1v-.5h1z" fill="#666"/><use xlink:href="#r" transform="matrix(1,0,0,1,215.32415148797682,506.9851158213601) translate(0 12.444444444444446)"/><use xlink:href="#s" transform="matrix(1,0,0,1,215.32415148797682,506.9851158213601) translate(39.75308641975309 12.444444444444446)"/><use xlink:href="#t" transform="matrix(1,0,0,1,215.32415148797682,506.9851158213601) translate(114.72222222222223 12.444444444444446)"/><use xlink:href="#u" transform="matrix(1,0,0,1,215.32415148797682,506.9851158213601) translate(195.0493827160494 12.444444444444446)"/><use xlink:href="#v" transform="matrix(1,0,0,1,215.32415148797682,506.9851158213601) translate(291.58024691358025 12.444444444444446)"/><use xlink:href="#w" transform="matrix(1,0,0,1,215.32415148797682,506.9851158213601) translate(323.46913580246917 12.444444444444446)"/><path d="M620.45 68c0-4.42 3.58-8 8-8h520.78c4.42 0 8 3.58 8 8v26.15c0 4.4-3.58 8-8 8H628.45c-4.42 0-8-3.6-8-8z" stroke="#000" stroke-opacity="0" stroke-width="2" fill="#fff" fill-opacity="0"/><use xlink:href="#x" transform="matrix(1,0,0,1,624.4519859370769,64) translate(107.1624691358025 23.657777777777778)"/><use xlink:href="#y" transform="matrix(1,0,0,1,624.4519859370769,64) translate(259.83407407407407 23.657777777777778)"/><use xlink:href="#z" transform="matrix(1,0,0,1,624.4519859370769,64) translate(354.3069135802469 23.657777777777778)"/><path d="M666.6 100.77h450.48M666.6 100.77h-1M1117.06 100.77h1.02" stroke="#b2b2b2" stroke-width="2" fill="none"/><path d="M620 109.07c0-4.4 3.58-8 8-8h521.38c4.42 0 8 3.6 8 8v4c0 4.42-3.58 8-8 8H628c-4.42 0-8-3.58-8-8z" stroke="#000" stroke-opacity="0" stroke-width="2" fill="#fff" fill-opacity="0"/><use xlink:href="#A" transform="matrix(1,0,0,1,624,105.07333333321691) translate(201.81360082304528 14.917037037037037)"/><use xlink:href="#B" transform="matrix(1,0,0,1,624,105.07333333321691) translate(217.10989711934158 14.917037037037037)"/><use xlink:href="#C" transform="matrix(1,0,0,1,624,105.07333333321691) translate(239.9693621399177 14.917037037037037)"/><use xlink:href="#D" transform="matrix(1,0,0,1,624,105.07333333321691) translate(252.41884773662554 14.917037037037037)"/><use xlink:href="#E" transform="matrix(1,0,0,1,624,105.07333333321691) translate(283.8187448559671 14.917037037037037)"/><use xlink:href="#F" transform="matrix(1,0,0,1,624,105.07333333321691) translate(300.8146296296296 14.917037037037037)"/><path d="M511.03 258.72l3 1.24 2.6 2 2 2.6 1.24 3 .42 3.2v141.05l-.43 3.23-1.25 3-2 2.6-2.6 2-3 1.23-3.2.42H480.3v-1h27.45l3.02-.4 2.76-1.14 2.38-1.83 1.85-2.38 1.14-2.76.4-3V270.82l-.4-3-1.15-2.77-1.84-2.4-2.38-1.82-2.75-1.14-3.02-.4H290.73v-1h217.1z" fill="#666"/><path d="M480.3 424.28h-.5v-1h.5zM290.23 263.44l-14.26-4.64 14.26-4.64z" fill="#666"/><path d="M290.73 264.12l-16.38-5.32 16.38-5.32zm-13.14-5.32l12.13 3.95v-7.9z" fill="#666"/><path d="M140.3 568c0-4.42 3.58-8 8-8h118.05c4.42 0 8 3.58 8 8v58c0 4.42-3.58 8-8 8H148.3c-4.42 0-8-3.58-8-8z" stroke="#000" stroke-opacity="0" stroke-width="2" fill="#75b2ff"/><use xlink:href="#G" transform="matrix(1,0,0,1,145.09888131372742,564.7999999999993) translate(32.94444444444444 36.56597222222222)"/><path d="M120 1281.84c0-4.42 3.58-8 8-8h118.05c4.42 0 8 3.58 8 8v58c0 4.42-3.58 8-8 8H128c-4.42 0-8-3.58-8-8z" stroke="#000" stroke-opacity="0" stroke-width="2" fill="#75b2ff"/><use xlink:href="#H" transform="matrix(1,0,0,1,124.79999999999998,1278.6427315575354) translate(6.2777777777777715 14.222222222222223)"/><use xlink:href="#I" transform="matrix(1,0,0,1,124.79999999999998,1278.6427315575354) translate(34.87037037037037 35.55555555555556)"/><use xlink:href="#J" transform="matrix(1,0,0,1,124.79999999999998,1278.6427315575354) translate(19.611111111111107 56.88888888888889)"/><path d="M140.3 808c0-4.42 3.58-8 8-8h118.05c4.42 0 8 3.58 8 8v58c0 4.42-3.58 8-8 8H148.3c-4.42 0-8-3.58-8-8z" stroke="#000" stroke-opacity="0" stroke-width="2" fill="#75b2ff"/><use xlink:href="#K" transform="matrix(1,0,0,1,145.09888131372742,804.8) translate(25.117283950617278 14.222222222222223)"/><use xlink:href="#L" transform="matrix(1,0,0,1,145.09888131372742,804.8) translate(12.672839506172835 35.55555555555556)"/><use xlink:href="#M" transform="matrix(1,0,0,1,145.09888131372742,804.8) translate(63.9320987654321 35.55555555555556)"/><use xlink:href="#N" transform="matrix(1,0,0,1,145.09888131372742,804.8) translate(2.055555555555543 56.88888888888889)"/><use xlink:href="#O" transform="matrix(1,0,0,1,145.09888131372742,804.8) translate(53.01851851851851 56.88888888888889)"/><path d="M139.8 597h-27.5c-6.63 0-12 5.37-12 12v216c0 6.63 5.37 12 12 12h11.6" stroke="#666" fill="none"/><path d="M140.3 597.5h-.5v-1h.5z" fill="#666"/><path d="M138.68 837l-14.26 4.64v-9.28z" stroke="#666" fill="#666"/><path d="M340.5 825.03l-.42 3.2-1.24 3-2 2.6-2.6 2-3 1.25-3.2.42h-53.2v-1h53.13l3-.4 2.77-1.14 2.4-1.83 1.82-2.4 1.14-2.75.4-3v-98.65h1zm-9.26-228.1l3 1.23 2.6 2 2 2.6 1.24 3 .42 3.2v98.7h-1v-98.63l-.4-3-1.14-2.77-1.83-2.4-2.4-1.82-2.75-1.14-3-.4h-37.25v-1h37.3z" fill="#666"/><path d="M274.86 837.5h-.5v-1h.5zM290.23 601.64L275.97 597l14.26-4.64z" fill="#666"/><path d="M290.73 602.32L274.35 597l16.38-5.32zM277.6 597l12.13 3.95v-7.9z" fill="#666"/><use xlink:href="#P" transform="matrix(1,0,0,1,316.7098765432099,707.6666666666663) translate(0 12.444444444444446)"/><path d="M430.5 1221.88l-.42 3.2-1.24 3-2 2.6-2.6 2-3 1.24-3.2.42H199.05l-3.02.4-2.75 1.14-2.4 1.83-1.84 2.4-1.14 2.76-.4 3.02v11.58h-1v-11.65l.43-3.2 1.24-3 1.98-2.6 2.6-2 3-1.24 3.2-.42h219l3-.4 2.76-1.13 2.4-1.83 1.82-2.4 1.14-2.74.4-3.02v-100.48h1zm-222.68-703.9l.4 3 1.14 2.76 1.84 2.4 2.4 1.82 2.74 1.14 3.02.4h198.67l3.2.42 3 1.24 2.6 2 2 2.6 1.25 3 .42 3.2v557.76h-1v-557.7l-.4-3-1.14-2.76-1.83-2.4-2.4-1.82-2.75-1.14-3-.4h-198.7l-3.2-.42-3-1.24-2.6-2-2-2.6-1.24-3-.42-3.2v-44.9h1zM207.82 472.64v.5h-1v-.5zM187.03 1272.22l-4.64-14.26h9.26z" fill="#666"/><path d="M187.03 1273.84l-5.33-16.38h10.65zm-3.95-15.38l3.95 12.15 3.94-12.14z" fill="#666"/><use xlink:href="#Q" transform="matrix(1,0,0,1,317.75000000000006,1099.7241444256722) translate(0 14.4)"/><use xlink:href="#R" transform="matrix(1,0,0,1,317.75000000000006,1099.7241444256722) translate(71.95 14.4)"/><use xlink:href="#S" transform="matrix(1,0,0,1,317.75000000000006,1099.7241444256722) translate(136.9 14.4)"/><use xlink:href="#T" transform="matrix(1,0,0,1,317.75000000000006,1099.7241444256722) translate(156.9 14.4)"/><use xlink:href="#U" transform="matrix(1,0,0,1,317.75000000000006,1099.7241444256722) translate(178.55 14.4)"/><path d="M580 394.58c0-4.42 3.58-8 8-8h118.05c4.42 0 8 3.58 8 8v58.4c0 4.42-3.58 8-8 8H588c-4.42 0-8-3.58-8-8z" stroke="#000" stroke-opacity="0" stroke-width="2" fill="#3278ca"/><use xlink:href="#V" transform="matrix(1,0,0,1,584.8,391.381587717813) translate(12.575000000000003 14.4)"/><use xlink:href="#W" transform="matrix(1,0,0,1,584.8,391.381587717813) translate(54.475 14.4)"/><use xlink:href="#X" transform="matrix(1,0,0,1,584.8,391.381587717813) translate(71.475 14.4)"/><use xlink:href="#Y" transform="matrix(1,0,0,1,584.8,391.381587717813) translate(27.35 36)"/><use xlink:href="#Z" transform="matrix(1,0,0,1,584.8,391.381587717813) translate(61.75 36)"/><use xlink:href="#aa" transform="matrix(1,0,0,1,584.8,391.381587717813) translate(28.549999999999997 57.6)"/><path d="M903.14 395.17c0-4.42 3.58-8 8-8h118.05c4.4 0 8 3.58 8 8v57.23c0 4.42-3.6 8-8 8H911.13c-4.42 0-8-3.58-8-8z" stroke="#000" stroke-opacity="0" stroke-width="2" fill="#3278ca"/><use xlink:href="#ab" transform="matrix(1,0,0,1,907.9404625339565,391.96586087356656) translate(45.025 34.4)"/><path d="M647.03 461.48V588.7c0 6.64-5.38 12-12 12H356.38" stroke="#666" fill="none"/><path d="M647.53 461.5h-1v-.52h1z" fill="#666"/><path d="M341.62 600.7l14.26-4.63v9.27z" stroke="#666" fill="#666"/><path d="M207.32 634.5V662c0 6.63 5.38 12 12 12h1134.04c6.63 0 12-5.37 12-12v-11.62" stroke="#666" fill="none"/><path d="M207.82 634.5h-1v-.5h1z" fill="#666"/><path d="M1365.36 635.62l4.64 14.26h-9.27z" stroke="#666" fill="#666"/><path d="M1300 568c0-4.42 3.58-8 8-8h118.05c4.42 0 8 3.58 8 8v58c0 4.42-3.58 8-8 8H1308c-4.42 0-8-3.58-8-8z" stroke="#000" stroke-opacity="0" stroke-width="2" fill="#75b2ff"/><use xlink:href="#ac" transform="matrix(1,0,0,1,1304.8,564.7999999999993) translate(10.006172839506164 36.56597222222222)"/><path d="M1300 1108c0-4.42 3.58-8 8-8h118.05c4.42 0 8 3.58 8 8v58c0 4.42-3.58 8-8 8H1308c-4.42 0-8-3.58-8-8z" stroke="#000" stroke-opacity="0" stroke-width="2" fill="#75b2ff"/><use xlink:href="#ad" transform="matrix(1,0,0,1,1304.8,1104.7999999999993) translate(28.52469135802469 36.56597222222222)"/><path d="M340.5 825.03l-.42 3.2-1.24 3-2 2.6-2.6 2-3 1.25-3.2.42h-53.2v-1h53.13l3-.4 2.77-1.14 2.4-1.83 1.82-2.4 1.14-2.75.4-3v-98.65h1zm-9.26-228.1l3 1.23 2.6 2 2 2.6 1.24 3 .42 3.2v98.7h-1v-98.63l-.4-3-1.14-2.77-1.83-2.4-2.4-1.82-2.75-1.14-3-.4h-37.25v-1h37.3z" fill="#666"/><path d="M274.86 837.5h-.5v-1h.5zM290.23 601.64L275.97 597l14.26-4.64z" fill="#666"/><path d="M290.73 602.32L274.35 597l16.38-5.32zM277.6 597l12.13 3.95v-7.9z" fill="#666"/><use xlink:href="#P" transform="matrix(1,0,0,1,316.7098765432099,707.6666666666663) translate(0 12.444444444444446)"/><path d="M1510.5 1125.03l-.42 3.2-1.24 3-2 2.6-2.6 2-3 1.25-3.2.42h-63.5v-1h63.43l3-.4 2.77-1.14 2.4-1.83 1.82-2.4 1.14-2.75.4-3V876.32h1zm-9.26-528.1l3 1.23 2.6 2 2 2.6 1.24 3 .42 3.2v248.7h-1V609.04l-.4-3-1.14-2.77-1.83-2.4-2.4-1.82-2.75-1.14-3-.4h-47.55v-1h47.6z" fill="#666"/><path d="M1434.56 1137.5h-.5v-1h.5zM1449.93 601.64l-14.26-4.64 14.26-4.64z" fill="#666"/><path d="M1450.43 602.32l-16.38-5.32 16.38-5.32zM1437.3 597l12.13 3.95v-7.9z" fill="#666"/><use xlink:href="#P" transform="matrix(1,0,0,1,1486.70987654321,857.666666666666) translate(0 12.444444444444446)"/><path d="M1299.5 600.38H1242c-6.63 0-12 5.37-12 12V1125c0 6.63 5.37 12 12 12h41.62" stroke="#666" fill="none"/><path d="M1300 600.88h-.5v-1h.5z" fill="#666"/><path d="M1298.38 1137l-14.26 4.64v-9.28z" stroke="#666" fill="#666"/><path d="M1264.43 220c14.8 0 26.8 17.37 26.8 38.8 0 21.43-12 38.8-26.8 38.8H1184c-14.8 0-26.8-17.37-26.8-38.8 0-21.43 12-38.8 26.8-38.8z" stroke="#000" stroke-opacity="0" stroke-width="2" fill="#225798"/><use xlink:href="#ae" transform="matrix(1,0,0,1,1161.9910028824552,224.8) translate(30.049999999999994 26.1)"/><use xlink:href="#af" transform="matrix(1,0,0,1,1161.9910028824552,224.8) translate(35.5 47.699999999999996)"/><path d="M970.67 270.83v99.95h-1v-100l.15-1.18h1zm186.02-11.53h-11.9v-1h11.9z" fill="#666"/><path d="M1157.2 258.8v.5h-.52v-1h.54zM970.17 385.55l-4.64-14.27h9.27z" fill="#666"/><path d="M970.17 387.17l-5.33-16.4h10.65zm-3.95-15.4l3.95 12.16 3.94-12.15zM942 259.3H819.06l-3.02.4-2.75 1.14-2.4 1.83-1.84 2.4-1.14 2.75-.4 3v99.96h-1v-100l.43-3.22 1.24-3 1.98-2.6 2.6-2 3-1.24 3.2-.42H942zm214.7 0h-11.9v-1h11.9z" fill="#666"/><path d="M1157.2 258.8v.5h-.52v-1h.54zM807.03 385.55l-4.64-14.27h9.26z" fill="#666"/><path d="M807.03 387.17l-5.33-16.4h10.65zm-3.95-15.4l3.95 12.16 3.94-12.15zM942 259.3H659.06l-3.02.4-2.75 1.14-2.4 1.83-1.84 2.4-1.14 2.75-.4 3v99.38h-1v-99.43l.43-3.2 1.24-3 1.98-2.6 2.6-2 3-1.25 3.2-.42H942zm214.7 0h-11.9v-1h11.9z" fill="#666"/><path d="M1157.2 258.8v.5h-.52v-1h.54zM647.03 384.96l-4.64-14.26h9.26z" fill="#666"/><path d="M647.03 386.58l-5.33-16.38h10.65zm-3.95-15.38l3.95 12.15 3.94-12.15z" fill="#666"/><use xlink:href="#ag" transform="matrix(1,0,0,1,942.0013331760653,248) translate(0 14.4)"/><use xlink:href="#ah" transform="matrix(1,0,0,1,942.0013331760653,248) translate(94.9 14.4)"/><use xlink:href="#ai" transform="matrix(1,0,0,1,942.0013331760653,248) translate(119.9 14.4)"/><use xlink:href="#aj" transform="matrix(1,0,0,1,942.0013331760653,248) translate(185.8 14.4)"/><path d="M345.24 424.28H311.2v-1h34.04z" fill="#666"/><path d="M345.74 424.28h-.52v-1h.52zM287.92 425.83l-6.3-2.05 6.3-2.04z" fill="#666"/><path d="M287.92 422.26l-4.68 1.52 4.68 1.52v1.05l-7.92-2.57 7.92-2.57z" fill="#666"/><path d="M254.55 1310.84h1100.48c6.62 0 12-5.37 12-12v-108.46" stroke="#666" fill="none"/><path d="M254.56 1311.34h-.5v-1h.5z" fill="#666"/><path d="M1367.03 1175.62l4.63 14.26h-9.27z" stroke="#666" fill="#666"/><path d="M1570 1108c0-4.42 3.58-8 8-8h118.05c4.42 0 8 3.58 8 8v58c0 4.42-3.58 8-8 8H1578c-4.42 0-8-3.58-8-8z" stroke="#000" stroke-opacity="0" stroke-width="2" fill="#75b2ff"/><use xlink:href="#ak" transform="matrix(1,0,0,1,1574.8,1104.7999999999993) translate(-9.524691358024711 25.388888888888886)"/><use xlink:href="#al" transform="matrix(1,0,0,1,1574.8,1104.7999999999993) translate(31.438271604938265 46.72222222222222)"/><path d="M1299.5 597.5h-107.47l-3 .4-2.77 1.14-2.4 1.83-1.82 2.4-1.14 2.75-.4 3v515.95l.4 3 1.14 2.77 1.83 2.4 2.4 1.82 2.75 1.14 3 .4h361.6v1h-361.65l-3.2-.42-3-1.24-2.6-2-2-2.6-1.25-3-.42-3.2V608.96l.42-3.2 1.24-3 2-2.6 2.6-2 3-1.25 3.2-.42h107.54z" fill="#666"/><path d="M1300 597.5h-.5v-1h.5zM1568.38 1137l-14.26 4.64v-9.28z" fill="#666"/><path d="M1570 1137l-16.38 5.32v-10.64zm-15.38 3.95l12.14-3.95-12.14-3.95zM1761.5 1125.03l-.4 3.2-1.25 3-2 2.6-2.6 2-3 1.25-3.2.42h-44.5v-1h44.43l3.02-.4 2.75-1.14 2.4-1.83 1.83-2.4 1.14-2.75.4-3V706h1zm-9.24-866.3l3 1.23 2.6 2 2 2.6 1.23 3 .4 3.2v413.66h-1v-413.6l-.38-3-1.14-2.76-1.84-2.4-2.4-1.82-2.74-1.14-3.02-.4h-441.35v-1h441.42z" fill="#666"/><path d="M1704.56 1137.5h-.5v-1h.5zM1307.13 263.44l-14.27-4.64 14.27-4.64z" fill="#666"/><path d="M1307.63 264.12l-16.4-5.32 16.4-5.32zm-13.15-5.32l12.15 3.95v-7.9z" fill="#666"/><g><use xlink:href="#am" transform="matrix(1,0,0,1,1746.512635,684.4196347395639) translate(0 14.4)"/></g><path d="M1640.5 1099.5h-1V794.14h1zm-9.26-499.96l3 1.24 2.6 2 2 2.6 1.24 3 .42 3.2v163.9h-1V611.65l-.4-3.02-1.14-2.75-1.83-2.4-2.4-1.83-2.75-1.14-3-.38h-101.6v-1h101.65zM1640.5 1100h-1v-.5h1zM1525.88 604.25l-14.26-4.63 14.26-4.64z" fill="#666"/><path d="M1526.38 604.94l-16.38-5.32 16.38-5.33zm-13.14-5.32l12.14 3.94v-7.9z" fill="#666"/><g><use xlink:href="#P" transform="matrix(1,0,0,1,1616.70987654321,775.4753540351029) translate(0 12.444444444444446)"/></g><path d="M1000.95 568c0-4.42 3.58-8 8-8H1127c4.42 0 8 3.58 8 8v58c0 4.42-3.58 8-8 8h-118.05c-4.42 0-8-3.58-8-8z" stroke="#000" stroke-opacity="0" stroke-width="2" fill="#75b2ff"/><g><use xlink:href="#an" transform="matrix(1,0,0,1,1005.7476344742228,564.7999999999993) translate(36.32716049382716 36.56597222222222)"/></g><path d="M1367.03 559.5V532c0-6.63-5.38-12-12-12H1187c-6.63 0-12 5.37-12 12v53c0 6.63-5.37 12-12 12h-11.62" stroke="#666" fill="none"/><path d="M1367.53 560h-1v-.5h1z" fill="#666"/><path d="M1136.62 597l14.26-4.64v9.28z" stroke="#666" fill="#666"/><g><use xlink:href="#ao" transform="matrix(1,0,0,1,1211.962362118763,494.3999999999993) translate(0 14.4)"/></g><path d="M532.88 1310.84h1092.15c6.62 0 12-5.37 12-12v-108.46M532.9 1310.84h-.52" stroke="#666" fill="none"/><path d="M1637.03 1175.62l4.63 14.26h-9.27z" stroke="#666" fill="#666"/><path d="M807.03 460.9v127.58c0 6.63-5.38 12-12 12H663.4" stroke="#666" fill="none"/><path d="M807.53 460.9h-1v-.5h1z" fill="#666"/><path d="M648.64 600.48l14.27-4.63v9.27z" stroke="#666" fill="#666"/><path d="M970.17 460.9v127.53c0 6.62-5.38 12-12 12H823.4" stroke="#666" fill="none"/><path d="M970.67 460.9h-1v-.5h1z" fill="#666"/><path d="M808.64 600.43l14.27-4.64v9.26z" stroke="#666" fill="#666"/><path d="M1000.45 597h-13.92" stroke="#666" fill="none"/><path d="M1000.95 597.5h-.52v-1h.52z" fill="#666"/><path d="M971.78 597.02l14.26-4.65.02 9.27z" stroke="#666" fill="#666"/><path d="M18.5 775.53h-2.12" stroke="#666" fill="none"/><path d="M19 776.03h-.5v-1h.5z" fill="#666"/><path d="M1.62 775.53l14.26-4.64v9.26z" stroke="#666" fill="#666"/><path d="M18.5 776.92h-2.12" stroke="#666" fill="none"/><path d="M19 777.42h-.5v-1h.5z" fill="#666"/><path d="M1.62 776.92l14.26-4.63v9.26z" stroke="#666" fill="#666"/><path d="M520.3 902.03l-.43 3.2-1.25 3-2 2.6-2.6 2-3 1.25-3.2.42H219.3l-3.22-.42-3-1.24-2.6-2-2-2.6-1.24-3-.42-3.2V874.5h1v27.47l.4 3 1.14 2.77 1.84 2.4 2.4 1.82 2.74 1.14 3.02.4h288.4l3-.4 2.77-1.14 2.38-1.83 1.85-2.4 1.14-2.75.4-3v-461.8h1z" fill="#666"/><path d="M207.82 874.5h-1v-.5h1zM524.42 439.67h-9.27l4.64-14.27z" fill="#666"/><path d="M525.1 440.17h-10.64l5.33-16.4zm-9.26-1h7.9l-3.95-12.15z" fill="#666"/><defs><path fill="#666" d="M67-125c0 53 21 87 73 88 37 1 54-22 65-47l45 17C233-25 199 4 140 4 58 4 20-42 15-125 8-235 124-281 211-232c18 10 29 29 36 50l-46 12c-8-25-30-41-62-41-52 0-71 34-72 86" id="ap"/><path fill="#666" d="M25 0v-261h50V0H25" id="aq"/><path fill="#666" d="M25-224v-37h50v37H25zM25 0v-190h50V0H25" id="ar"/><path fill="#666" d="M185-48c-13 30-37 53-82 52C43 2 14-33 14-96s30-98 90-98c62 0 83 45 84 108H66c0 31 8 55 39 56 18 0 30-7 34-22zm-45-69c5-46-57-63-70-21-2 6-4 13-4 21h74" id="as"/><path fill="#666" d="M135-194c87-1 58 113 63 194h-50c-7-57 23-157-34-157-59 0-34 97-39 157H25l-1-190h47c2 12-1 28 3 38 12-26 28-41 61-42" id="at"/><path fill="#666" d="M115-3C79 11 28 4 28-45v-112H4v-33h27l15-45h31v45h36v33H77v99c-1 23 16 31 38 25v30" id="au"/><g id="a"><use transform="matrix(0.05555555555555555,0,0,0.05555555555555555,0,0)" xlink:href="#ap"/><use transform="matrix(0.05555555555555555,0,0,0.05555555555555555,14.388888888888888,0)" xlink:href="#aq"/><use transform="matrix(0.05555555555555555,0,0,0.05555555555555555,19.944444444444443,0)" xlink:href="#ar"/><use transform="matrix(0.05555555555555555,0,0,0.05555555555555555,25.5,0)" xlink:href="#as"/><use transform="matrix(0.05555555555555555,0,0,0.05555555555555555,36.611111111111114,0)" xlink:href="#at"/><use transform="matrix(0.05555555555555555,0,0,0.05555555555555555,48.77777777777778,0)" xlink:href="#au"/></g><path fill="#666" d="M199 0l-22-63H83L61 0H9l90-248h61L250 0h-51zm-33-102l-36-108c-10 38-24 72-36 108h72" id="av"/><path fill="#666" d="M135-150c-39-12-60 13-60 57V0H25l-1-190h47c2 13-1 29 3 40 6-28 27-53 61-41v41" id="aw"/><path fill="#666" d="M190-63c-7 42-38 67-86 67-59 0-84-38-90-98-12-110 154-137 174-36l-49 2c-2-19-15-32-35-32-30 0-35 28-38 64-6 74 65 87 74 30" id="ax"/><path fill="#666" d="M114-157C55-157 80-60 75 0H25v-261h50l-1 109c12-26 28-41 61-42 86-1 58 113 63 194h-50c-7-57 23-157-34-157" id="ay"/><path fill="#666" d="M85 4C-2 5 27-109 22-190h50c7 57-23 150 33 157 60-5 35-97 40-157h50l1 190h-47c-2-12 1-28-3-38-12 25-28 42-61 42" id="az"/><g id="b"><use transform="matrix(0.05555555555555555,0,0,0.05555555555555555,0,0)" xlink:href="#av"/><use transform="matrix(0.05555555555555555,0,0,0.05555555555555555,14.388888888888888,0)" xlink:href="#aw"/><use transform="matrix(0.05555555555555555,0,0,0.05555555555555555,22.166666666666664,0)" xlink:href="#ax"/><use transform="matrix(0.05555555555555555,0,0,0.05555555555555555,33.27777777777777,0)" xlink:href="#ay"/><use transform="matrix(0.05555555555555555,0,0,0.05555555555555555,45.444444444444436,0)" xlink:href="#ar"/><use transform="matrix(0.05555555555555555,0,0,0.05555555555555555,50.99999999999999,0)" xlink:href="#au"/><use transform="matrix(0.05555555555555555,0,0,0.05555555555555555,57.61111111111109,0)" xlink:href="#as"/><use transform="matrix(0.05555555555555555,0,0,0.05555555555555555,68.72222222222221,0)" xlink:href="#ax"/><use transform="matrix(0.05555555555555555,0,0,0.05555555555555555,79.83333333333333,0)" xlink:href="#au"/><use transform="matrix(0.05555555555555555,0,0,0.05555555555555555,86.44444444444444,0)" xlink:href="#az"/><use transform="matrix(0.05555555555555555,0,0,0.05555555555555555,98.61111111111111,0)" xlink:href="#aw"/><use transform="matrix(0.05555555555555555,0,0,0.05555555555555555,106.38888888888889,0)" xlink:href="#as"/></g><path fill="#666" d="M76-208v77h127v40H76V0H24v-248h183v40H76" id="aA"/><path fill="#666" d="M110-194c64 0 96 36 96 99 0 64-35 99-97 99-61 0-95-36-95-99 0-62 34-99 96-99zm-1 164c35 0 45-28 45-65 0-40-10-65-43-65-34 0-45 26-45 65 0 36 10 65 43 65" id="aB"/><path fill="#666" d="M14-72v-43h91v43H14" id="aC"/><path fill="#666" d="M88-194c31-1 46 15 58 34l-1-101h50l1 261h-48c-2-10 0-23-3-31C134-8 116 4 84 4 32 4 16-41 15-95c0-56 19-97 73-99zm17 164c33 0 40-30 41-66 1-37-9-64-41-64s-38 30-39 65c0 43 13 65 39 65" id="aD"/><g id="c"><use transform="matrix(0.05555555555555555,0,0,0.05555555555555555,0,0)" xlink:href="#aA"/><use transform="matrix(0.05555555555555555,0,0,0.05555555555555555,12.166666666666666,0)" xlink:href="#aw"/><use transform="matrix(0.05555555555555555,0,0,0.05555555555555555,19.944444444444443,0)" xlink:href="#aB"/><use transform="matrix(0.05555555555555555,0,0,0.05555555555555555,32.11111111111111,0)" xlink:href="#at"/><use transform="matrix(0.05555555555555555,0,0,0.05555555555555555,44.27777777777777,0)" xlink:href="#au"/><use transform="matrix(0.05555555555555555,0,0,0.05555555555555555,50.888888888888886,0)" xlink:href="#aC"/><use transform="matrix(0.05555555555555555,0,0,0.05555555555555555,57.5,0)" xlink:href="#as"/><use transform="matrix(0.05555555555555555,0,0,0.05555555555555555,68.61111111111111,0)" xlink:href="#at"/><use transform="matrix(0.05555555555555555,0,0,0.05555555555555555,80.77777777777779,0)" xlink:href="#aD"/></g><path fill="#666" d="M24-248c93 1 206-16 204 79-1 75-69 88-152 82V0H24v-248zm52 121c47 0 100 7 100-41 0-47-54-39-100-39v80" id="aE"/><path fill="#666" d="M123 10C108 53 80 86 19 72V37c35 8 53-11 59-39L3-190h52l48 148c12-52 28-100 44-148h51" id="aF"/><path fill="#666" d="M135-194c53 0 70 44 70 98 0 56-19 98-73 100-31 1-45-17-59-34 3 33 2 69 2 105H25l-1-265h48c2 10 0 23 3 31 11-24 29-35 60-35zM114-30c33 0 39-31 40-66 0-38-9-64-40-64-56 0-55 130 0 130" id="aG"/><g id="d"><use transform="matrix(0.05555555555555555,0,0,0.05555555555555555,0,0)" xlink:href="#aE"/><use transform="matrix(0.05555555555555555,0,0,0.05555555555555555,13.333333333333332,0)" xlink:href="#aw"/><use transform="matrix(0.05555555555555555,0,0,0.05555555555555555,21.11111111111111,0)" xlink:href="#aB"/><use transform="matrix(0.05555555555555555,0,0,0.05555555555555555,33.27777777777778,0)" xlink:href="#au"/><use transform="matrix(0.05555555555555555,0,0,0.05555555555555555,39.888888888888886,0)" xlink:href="#aB"/><use transform="matrix(0.05555555555555555,0,0,0.05555555555555555,52.05555555555555,0)" xlink:href="#au"/><use transform="matrix(0.05555555555555555,0,0,0.05555555555555555,58.666666666666664,0)" xlink:href="#aF"/><use transform="matrix(0.05555555555555555,0,0,0.05555555555555555,69.77777777777777,0)" xlink:href="#aG"/><use transform="matrix(0.05555555555555555,0,0,0.05555555555555555,81.94444444444444,0)" xlink:href="#as"/></g><path fill="#666" d="M182-130c37 4 62 22 62 59C244 23 116-4 24 0v-248c84 5 203-23 205 63 0 31-19 50-47 55zM76-148c40-3 101 13 101-30 0-44-60-28-101-31v61zm0 110c48-3 116 14 116-37 0-48-69-32-116-35v72" id="aH"/><path fill="#666" d="M133-34C117-15 103 5 69 4 32 3 11-16 11-54c-1-60 55-63 116-61 1-26-3-47-28-47-18 1-26 9-28 27l-52-2c7-38 36-58 82-57s74 22 75 68l1 82c-1 14 12 18 25 15v27c-30 8-71 5-69-32zm-48 3c29 0 43-24 42-57-32 0-66-3-65 30 0 17 8 27 23 27" id="aI"/><path fill="#666" d="M147 0L96-86 75-71V0H25v-261h50v150l67-79h53l-66 74L201 0h-54" id="aJ"/><g id="e"><use transform="matrix(0.05555555555555555,0,0,0.05555555555555555,0,0)" xlink:href="#aH"/><use transform="matrix(0.05555555555555555,0,0,0.05555555555555555,14.388888888888888,0)" xlink:href="#aI"/><use transform="matrix(0.05555555555555555,0,0,0.05555555555555555,25.5,0)" xlink:href="#ax"/><use transform="matrix(0.05555555555555555,0,0,0.05555555555555555,36.611111111111114,0)" xlink:href="#aJ"/><use transform="matrix(0.05555555555555555,0,0,0.05555555555555555,47.72222222222223,0)" xlink:href="#as"/><use transform="matrix(0.05555555555555555,0,0,0.05555555555555555,58.83333333333334,0)" xlink:href="#at"/><use transform="matrix(0.05555555555555555,0,0,0.05555555555555555,71.00000000000001,0)" xlink:href="#aD"/></g><path fill="#666" d="M24 0v-248h52V0H24" id="aK"/><g id="f"><use transform="matrix(0.05555555555555555,0,0,0.05555555555555555,0,0)" xlink:href="#aK"/><use transform="matrix(0.05555555555555555,0,0,0.05555555555555555,5.555555555555555,0)" xlink:href="#aE"/></g><path fill="#666" d="M67-125c0 54 23 88 75 88 28 0 53-7 68-21v-34h-60v-39h108v91C232-14 192 4 140 4 58 4 20-42 15-125 8-236 126-280 215-234c19 10 29 26 37 47l-47 15c-11-23-29-39-63-39-53 1-75 33-75 86" id="aL"/><g id="g"><use transform="matrix(0.05555555555555555,0,0,0.05555555555555555,0,0)" xlink:href="#aL"/><use transform="matrix(0.05555555555555555,0,0,0.05555555555555555,15.555555555555555,0)" xlink:href="#aw"/><use transform="matrix(0.05555555555555555,0,0,0.05555555555555555,23.333333333333332,0)" xlink:href="#aB"/><use transform="matrix(0.05555555555555555,0,0,0.05555555555555555,35.5,0)" xlink:href="#az"/><use transform="matrix(0.05555555555555555,0,0,0.05555555555555555,47.666666666666664,0)" xlink:href="#aG"/></g><path fill="#fff" d="M233-177c-1 41-23 64-60 70L243 0h-38l-65-103H63V0H30v-248c88 3 205-21 203 71zM63-129c60-2 137 13 137-47 0-61-80-42-137-45v92" id="aM"/><path fill="#fff" d="M100-194c63 0 86 42 84 106H49c0 40 14 67 53 68 26 1 43-12 49-29l28 8c-11 28-37 45-77 45C44 4 14-33 15-96c1-61 26-98 85-98zm52 81c6-60-76-77-97-28-3 7-6 17-6 28h103" id="aN"/><path fill="#fff" d="M145-31C134-9 116 4 85 4 32 4 16-35 15-94c0-59 17-99 70-100 32-1 48 14 60 33 0-11-1-24 2-32h30l-1 268h-32zM93-21c41 0 51-33 51-76s-8-73-50-73c-40 0-46 35-46 75s5 74 45 74" id="aO"/><path fill="#fff" d="M84 4C-5 8 30-112 23-190h32v120c0 31 7 50 39 49 72-2 45-101 50-169h31l1 190h-30c-1-10 1-25-2-33-11 22-28 36-60 37" id="aP"/><path fill="#fff" d="M135-143c-3-34-86-38-87 0 15 53 115 12 119 90S17 21 10-45l28-5c4 36 97 45 98 0-10-56-113-15-118-90-4-57 82-63 122-42 12 7 21 19 24 35" id="aQ"/><path fill="#fff" d="M59-47c-2 24 18 29 38 22v24C64 9 27 4 27-40v-127H5v-23h24l9-43h21v43h35v23H59v120" id="aR"/><g id="h"><use transform="matrix(0.05,0,0,0.05,0,0)" xlink:href="#aM"/><use transform="matrix(0.05,0,0,0.05,12.950000000000001,0)" xlink:href="#aN"/><use transform="matrix(0.05,0,0,0.05,22.950000000000003,0)" xlink:href="#aO"/><use transform="matrix(0.05,0,0,0.05,32.95,0)" xlink:href="#aP"/><use transform="matrix(0.05,0,0,0.05,42.95,0)" xlink:href="#aN"/><use transform="matrix(0.05,0,0,0.05,52.95,0)" xlink:href="#aQ"/><use transform="matrix(0.05,0,0,0.05,61.95,0)" xlink:href="#aR"/></g><path fill="#fff" d="M101-234c-31-9-42 10-38 44h38v23H63V0H32v-167H5v-23h27c-7-52 17-82 69-68v24" id="aS"/><path fill="#fff" d="M100-194c62-1 85 37 85 99 1 63-27 99-86 99S16-35 15-95c0-66 28-99 85-99zM99-20c44 1 53-31 53-75 0-43-8-75-51-75s-53 32-53 75 10 74 51 75" id="aT"/><path fill="#fff" d="M114-163C36-179 61-72 57 0H25l-1-190h30c1 12-1 29 2 39 6-27 23-49 58-41v29" id="aU"/><g id="i"><use transform="matrix(0.05,0,0,0.05,0,0)" xlink:href="#aS"/><use transform="matrix(0.05,0,0,0.05,5,0)" xlink:href="#aT"/><use transform="matrix(0.05,0,0,0.05,15,0)" xlink:href="#aU"/></g><path fill="#fff" d="M85-194c31 0 48 13 60 33l-1-100h32l1 261h-30c-2-10 0-23-3-31C134-8 116 4 85 4 32 4 16-35 15-94c0-66 23-100 70-100zm9 24c-40 0-46 34-46 75 0 40 6 74 45 74 42 0 51-32 51-76 0-42-9-74-50-73" id="aV"/><path fill="#fff" d="M24-231v-30h32v30H24zM24 0v-190h32V0H24" id="aW"/><path fill="#fff" d="M117-194c89-4 53 116 60 194h-32v-121c0-31-8-49-39-48C34-167 62-67 57 0H25l-1-190h30c1 10-1 24 2 32 11-22 29-35 61-36" id="aX"/><g id="j"><use transform="matrix(0.05,0,0,0.05,0,0)" xlink:href="#aV"/><use transform="matrix(0.05,0,0,0.05,10,0)" xlink:href="#aW"/><use transform="matrix(0.05,0,0,0.05,13.949999999999998,0)" xlink:href="#aS"/><use transform="matrix(0.05,0,0,0.05,18.6,0)" xlink:href="#aS"/><use transform="matrix(0.05,0,0,0.05,23.6,0)" xlink:href="#aN"/><use transform="matrix(0.05,0,0,0.05,33.6,0)" xlink:href="#aU"/><use transform="matrix(0.05,0,0,0.05,39.550000000000004,0)" xlink:href="#aN"/><use transform="matrix(0.05,0,0,0.05,49.550000000000004,0)" xlink:href="#aX"/><use transform="matrix(0.05,0,0,0.05,59.550000000000004,0)" xlink:href="#aR"/></g><path fill="#fff" d="M141-36C126-15 110 5 73 4 37 3 15-17 15-53c-1-64 63-63 125-63 3-35-9-54-41-54-24 1-41 7-42 31l-33-3c5-37 33-52 76-52 45 0 72 20 72 64v82c-1 20 7 32 28 27v20c-31 9-61-2-59-35zM48-53c0 20 12 33 32 33 41-3 63-29 60-74-43 2-92-5-92 41" id="aY"/><path fill="#fff" d="M115-194c55 1 70 41 70 98S169 2 115 4C84 4 66-9 55-30l1 105H24l-1-265h31l2 30c10-21 28-34 59-34zm-8 174c40 0 45-34 45-75s-6-73-45-74c-42 0-51 32-51 76 0 43 10 73 51 73" id="aZ"/><path fill="#fff" d="M24 0v-261h32V0H24" id="ba"/><path fill="#fff" d="M96-169c-40 0-48 33-48 73s9 75 48 75c24 0 41-14 43-38l32 2c-6 37-31 61-74 61-59 0-76-41-82-99-10-93 101-131 147-64 4 7 5 14 7 22l-32 3c-4-21-16-35-41-35" id="bb"/><g id="k"><use transform="matrix(0.05,0,0,0.05,0,0)" xlink:href="#aY"/><use transform="matrix(0.05,0,0,0.05,10,0)" xlink:href="#aZ"/><use transform="matrix(0.05,0,0,0.05,20,0)" xlink:href="#aZ"/><use transform="matrix(0.05,0,0,0.05,30,0)" xlink:href="#ba"/><use transform="matrix(0.05,0,0,0.05,33.95,0)" xlink:href="#aW"/><use transform="matrix(0.05,0,0,0.05,37.900000000000006,0)" xlink:href="#bb"/><use transform="matrix(0.05,0,0,0.05,46.900000000000006,0)" xlink:href="#aY"/><use transform="matrix(0.05,0,0,0.05,56.900000000000006,0)" xlink:href="#aR"/><use transform="matrix(0.05,0,0,0.05,61.900000000000006,0)" xlink:href="#aW"/><use transform="matrix(0.05,0,0,0.05,65.85000000000001,0)" xlink:href="#aT"/><use transform="matrix(0.05,0,0,0.05,75.85000000000001,0)" xlink:href="#aX"/><use transform="matrix(0.05,0,0,0.05,85.85000000000001,0)" xlink:href="#aQ"/></g><path fill="#fff" d="M30-248c118-7 216 8 213 122C240-48 200 0 122 0H30v-248zM63-27c89 8 146-16 146-99s-60-101-146-95v194" id="bc"/><path fill="#fff" d="M30 0v-248h33v221h125V0H30" id="bd"/><path fill="#fff" d="M205 0l-28-72H64L36 0H1l101-248h38L239 0h-34zm-38-99l-47-123c-12 45-31 82-46 123h93" id="be"/><g id="l"><use transform="matrix(0.05,0,0,0.05,0,0)" xlink:href="#aQ"/><use transform="matrix(0.05,0,0,0.05,9,0)" xlink:href="#aT"/><use transform="matrix(0.05,0,0,0.05,19,0)" xlink:href="#bc"/><use transform="matrix(0.05,0,0,0.05,31.950000000000003,0)" xlink:href="#bd"/><use transform="matrix(0.05,0,0,0.05,41.95,0)" xlink:href="#be"/></g><path fill="#666" d="M233-177c-1 41-23 64-60 70L243 0h-38l-65-103H63V0H30v-248c88 3 205-21 203 71zM63-129c60-2 137 13 137-47 0-61-80-42-137-45v92" id="bf"/><path fill="#666" d="M100-194c63 0 86 42 84 106H49c0 40 14 67 53 68 26 1 43-12 49-29l28 8c-11 28-37 45-77 45C44 4 14-33 15-96c1-61 26-98 85-98zm52 81c6-60-76-77-97-28-3 7-6 17-6 28h103" id="bg"/><path fill="#666" d="M145-31C134-9 116 4 85 4 32 4 16-35 15-94c0-59 17-99 70-100 32-1 48 14 60 33 0-11-1-24 2-32h30l-1 268h-32zM93-21c41 0 51-33 51-76s-8-73-50-73c-40 0-46 35-46 75s5 74 45 74" id="bh"/><path fill="#666" d="M84 4C-5 8 30-112 23-190h32v120c0 31 7 50 39 49 72-2 45-101 50-169h31l1 190h-30c-1-10 1-25-2-33-11 22-28 36-60 37" id="bi"/><path fill="#666" d="M135-143c-3-34-86-38-87 0 15 53 115 12 119 90S17 21 10-45l28-5c4 36 97 45 98 0-10-56-113-15-118-90-4-57 82-63 122-42 12 7 21 19 24 35" id="bj"/><path fill="#666" d="M59-47c-2 24 18 29 38 22v24C64 9 27 4 27-40v-127H5v-23h24l9-43h21v43h35v23H59v120" id="bk"/><g id="m"><use transform="matrix(0.05,0,0,0.05,0,0)" xlink:href="#bf"/><use transform="matrix(0.05,0,0,0.05,12.950000000000001,0)" xlink:href="#bg"/><use transform="matrix(0.05,0,0,0.05,22.950000000000003,0)" xlink:href="#bh"/><use transform="matrix(0.05,0,0,0.05,32.95,0)" xlink:href="#bi"/><use transform="matrix(0.05,0,0,0.05,42.95,0)" xlink:href="#bg"/><use transform="matrix(0.05,0,0,0.05,52.95,0)" xlink:href="#bj"/><use transform="matrix(0.05,0,0,0.05,61.95,0)" xlink:href="#bk"/></g><path fill="#666" d="M141-36C126-15 110 5 73 4 37 3 15-17 15-53c-1-64 63-63 125-63 3-35-9-54-41-54-24 1-41 7-42 31l-33-3c5-37 33-52 76-52 45 0 72 20 72 64v82c-1 20 7 32 28 27v20c-31 9-61-2-59-35zM48-53c0 20 12 33 32 33 41-3 63-29 60-74-43 2-92-5-92 41" id="bl"/><path fill="#666" d="M117-194c89-4 53 116 60 194h-32v-121c0-31-8-49-39-48C34-167 62-67 57 0H25l-1-190h30c1 10-1 24 2 32 11-22 29-35 61-36" id="bm"/><path fill="#666" d="M24 0v-261h32V0H24" id="bn"/><path fill="#666" d="M179-190L93 31C79 59 56 82 12 73V49c39 6 53-20 64-50L1-190h34L92-34l54-156h33" id="bo"/><path fill="#666" d="M24-231v-30h32v30H24zM24 0v-190h32V0H24" id="bp"/><g id="n"><use transform="matrix(0.05,0,0,0.05,0,0)" xlink:href="#bl"/><use transform="matrix(0.05,0,0,0.05,10,0)" xlink:href="#bm"/><use transform="matrix(0.05,0,0,0.05,20,0)" xlink:href="#bl"/><use transform="matrix(0.05,0,0,0.05,30,0)" xlink:href="#bn"/><use transform="matrix(0.05,0,0,0.05,33.95,0)" xlink:href="#bo"/><use transform="matrix(0.05,0,0,0.05,42.95,0)" xlink:href="#bj"/><use transform="matrix(0.05,0,0,0.05,51.95,0)" xlink:href="#bp"/><use transform="matrix(0.05,0,0,0.05,55.900000000000006,0)" xlink:href="#bj"/></g><path fill="#fff" d="M240 0l2-218c-23 76-54 145-80 218h-23L58-218 59 0H30v-248h44l77 211c21-75 51-140 76-211h43V0h-30" id="bq"/><path fill="#fff" d="M179-190L93 31C79 59 56 82 12 73V49c39 6 53-20 64-50L1-190h34L92-34l54-156h33" id="br"/><g id="o"><use transform="matrix(0.04938271604938272,0,0,0.04938271604938272,0,0)" xlink:href="#bq"/><use transform="matrix(0.04938271604938272,0,0,0.04938271604938272,14.765432098765434,0)" xlink:href="#aT"/><use transform="matrix(0.04938271604938272,0,0,0.04938271604938272,24.641975308641978,0)" xlink:href="#aV"/><use transform="matrix(0.04938271604938272,0,0,0.04938271604938272,34.51851851851852,0)" xlink:href="#aW"/><use transform="matrix(0.04938271604938272,0,0,0.04938271604938272,38.41975308641975,0)" xlink:href="#aS"/><use transform="matrix(0.04938271604938272,0,0,0.04938271604938272,43.358024691358025,0)" xlink:href="#br"/></g><g id="p"><use transform="matrix(0.04938271604938272,0,0,0.04938271604938272,0,0)" xlink:href="#aU"/><use transform="matrix(0.04938271604938272,0,0,0.04938271604938272,5.8765432098765435,0)" xlink:href="#aN"/><use transform="matrix(0.04938271604938272,0,0,0.04938271604938272,15.753086419753087,0)" xlink:href="#aO"/><use transform="matrix(0.04938271604938272,0,0,0.04938271604938272,25.629629629629633,0)" xlink:href="#aP"/><use transform="matrix(0.04938271604938272,0,0,0.04938271604938272,35.50617283950618,0)" xlink:href="#aN"/><use transform="matrix(0.04938271604938272,0,0,0.04938271604938272,45.38271604938272,0)" xlink:href="#aQ"/><use transform="matrix(0.04938271604938272,0,0,0.04938271604938272,54.27160493827161,0)" xlink:href="#aR"/></g><path fill="#666" d="M175 0L67-191c6 58 2 128 3 191H24v-248h59L193-55c-6-58-2-129-3-193h46V0h-61" id="bs"/><path fill="#666" d="M140-251c80 0 125 45 125 126S219 4 139 4C58 4 15-44 15-125s44-126 125-126zm-1 214c52 0 73-35 73-88 0-50-21-86-72-86-52 0-73 35-73 86s22 88 72 88" id="bt"/><g id="q"><use transform="matrix(0.04320987654320988,0,0,0.04320987654320988,0,0)" xlink:href="#bs"/><use transform="matrix(0.04320987654320988,0,0,0.04320987654320988,11.19135802469136,0)" xlink:href="#bt"/></g><path fill="#666" d="M146-102V0H94v-102L6-248h54l60 105 60-105h54" id="bu"/><path fill="#666" d="M24 0v-248h195v40H76v63h132v40H76v65h150V0H24" id="bv"/><path fill="#666" d="M169-182c-1-43-94-46-97-3 18 66 151 10 154 114 3 95-165 93-204 36-6-8-10-19-12-30l50-8c3 46 112 56 116 5-17-69-150-10-154-114-4-87 153-88 188-35 5 8 8 18 10 28" id="bw"/><path fill="#666" d="M76-54c-1 42 2 86-19 110H24C36 42 46 24 48 0H25v-54h51" id="bx"/><g id="r"><use transform="matrix(0.04320987654320988,0,0,0.04320987654320988,0,0)" xlink:href="#bu"/><use transform="matrix(0.04320987654320988,0,0,0.04320987654320988,10.370370370370372,0)" xlink:href="#bv"/><use transform="matrix(0.04320987654320988,0,0,0.04320987654320988,20.740740740740744,0)" xlink:href="#bw"/><use transform="matrix(0.04320987654320988,0,0,0.04320987654320988,31.111111111111114,0)" xlink:href="#bx"/></g><path fill="#666" d="M137-138c1-29-70-34-71-4 15 46 118 7 119 86 1 83-164 76-172 9l43-7c4 19 20 25 44 25 33 8 57-30 24-41C81-84 22-81 20-136c-2-80 154-74 161-7" id="by"/><path fill="#666" d="M135-194c52 0 70 43 70 98 0 56-19 99-73 100-30 1-46-15-58-35L72 0H24l1-261h50v104c11-23 29-37 60-37zM114-30c31 0 40-27 40-66 0-37-7-63-39-63s-41 28-41 65c0 36 8 64 40 64" id="bz"/><g id="s"><use transform="matrix(0.04320987654320988,0,0,0.04320987654320988,0,0)" xlink:href="#aD"/><use transform="matrix(0.04320987654320988,0,0,0.04320987654320988,9.462962962962964,0)" xlink:href="#ar"/><use transform="matrix(0.04320987654320988,0,0,0.04320987654320988,13.783950617283953,0)" xlink:href="#by"/><use transform="matrix(0.04320987654320988,0,0,0.04320987654320988,22.425925925925934,0)" xlink:href="#au"/><use transform="matrix(0.04320987654320988,0,0,0.04320987654320988,27.567901234567906,0)" xlink:href="#aw"/><use transform="matrix(0.04320987654320988,0,0,0.04320987654320988,33.61728395061729,0)" xlink:href="#ar"/><use transform="matrix(0.04320987654320988,0,0,0.04320987654320988,37.93827160493828,0)" xlink:href="#bz"/><use transform="matrix(0.04320987654320988,0,0,0.04320987654320988,47.40123456790124,0)" xlink:href="#az"/><use transform="matrix(0.04320987654320988,0,0,0.04320987654320988,56.8641975308642,0)" xlink:href="#au"/><use transform="matrix(0.04320987654320988,0,0,0.04320987654320988,62.00617283950618,0)" xlink:href="#as"/></g><g id="t"><use transform="matrix(0.04320987654320988,0,0,0.04320987654320988,0,0)" xlink:href="#at"/><use transform="matrix(0.04320987654320988,0,0,0.04320987654320988,9.462962962962964,0)" xlink:href="#as"/><use transform="matrix(0.04320987654320988,0,0,0.04320987654320988,18.10493827160494,0)" xlink:href="#ax"/><use transform="matrix(0.04320987654320988,0,0,0.04320987654320988,26.746913580246915,0)" xlink:href="#as"/><use transform="matrix(0.04320987654320988,0,0,0.04320987654320988,35.38888888888889,0)" xlink:href="#by"/><use transform="matrix(0.04320987654320988,0,0,0.04320987654320988,44.03086419753087,0)" xlink:href="#by"/><use transform="matrix(0.04320987654320988,0,0,0.04320987654320988,52.67283950617284,0)" xlink:href="#aI"/><use transform="matrix(0.04320987654320988,0,0,0.04320987654320988,61.314814814814824,0)" xlink:href="#aw"/><use transform="matrix(0.04320987654320988,0,0,0.04320987654320988,67.3641975308642,0)" xlink:href="#aF"/></g><path fill="#666" d="M220-157c-53 9-28 100-34 157h-49v-107c1-27-5-49-29-50C55-147 81-57 75 0H25l-1-190h47c2 12-1 28 3 38 10-53 101-56 108 0 13-22 24-43 59-42 82 1 51 116 57 194h-49v-107c-1-25-5-48-29-50" id="bA"/><g id="u"><use transform="matrix(0.04320987654320988,0,0,0.04320987654320988,0,0)" xlink:href="#ax"/><use transform="matrix(0.04320987654320988,0,0,0.04320987654320988,8.641975308641976,0)" xlink:href="#aB"/><use transform="matrix(0.04320987654320988,0,0,0.04320987654320988,18.10493827160494,0)" xlink:href="#bA"/><use transform="matrix(0.04320987654320988,0,0,0.04320987654320988,31.9320987654321,0)" xlink:href="#aG"/><use transform="matrix(0.04320987654320988,0,0,0.04320987654320988,41.39506172839506,0)" xlink:href="#aB"/><use transform="matrix(0.04320987654320988,0,0,0.04320987654320988,50.85802469135803,0)" xlink:href="#at"/><use transform="matrix(0.04320987654320988,0,0,0.04320987654320988,60.32098765432099,0)" xlink:href="#as"/><use transform="matrix(0.04320987654320988,0,0,0.04320987654320988,68.96296296296296,0)" xlink:href="#at"/><use transform="matrix(0.04320987654320988,0,0,0.04320987654320988,78.42592592592592,0)" xlink:href="#au"/><use transform="matrix(0.04320987654320988,0,0,0.04320987654320988,83.5679012345679,0)" xlink:href="#by"/></g><g id="v"><use transform="matrix(0.04320987654320988,0,0,0.04320987654320988,0,0)" xlink:href="#aI"/><use transform="matrix(0.04320987654320988,0,0,0.04320987654320988,8.641975308641976,0)" xlink:href="#at"/><use transform="matrix(0.04320987654320988,0,0,0.04320987654320988,18.10493827160494,0)" xlink:href="#aD"/></g><path fill="#666" d="M24 0v-54h51V0H24" id="bB"/><g id="w"><use transform="matrix(0.04320987654320988,0,0,0.04320987654320988,0,0)" xlink:href="#by"/><use transform="matrix(0.04320987654320988,0,0,0.04320987654320988,8.641975308641976,0)" xlink:href="#aG"/><use transform="matrix(0.04320987654320988,0,0,0.04320987654320988,18.10493827160494,0)" xlink:href="#as"/><use transform="matrix(0.04320987654320988,0,0,0.04320987654320988,26.746913580246915,0)" xlink:href="#ax"/><use transform="matrix(0.04320987654320988,0,0,0.04320987654320988,35.38888888888889,0)" xlink:href="#bB"/></g><path fill="#b2b2b2" d="M175 0L67-191c6 58 2 128 3 191H24v-248h59L193-55c-6-58-2-129-3-193h46V0h-61" id="bC"/><path fill="#b2b2b2" d="M135-194c53 0 70 44 70 98 0 56-19 98-73 100-31 1-45-17-59-34 3 33 2 69 2 105H25l-1-265h48c2 10 0 23 3 31 11-24 29-35 60-35zM114-30c33 0 39-31 40-66 0-38-9-64-40-64-56 0-55 130 0 130" id="bD"/><path fill="#b2b2b2" d="M135-150c-39-12-60 13-60 57V0H25l-1-190h47c2 13-1 29 3 40 6-28 27-53 61-41v41" id="bE"/><path fill="#b2b2b2" d="M110-194c64 0 96 36 96 99 0 64-35 99-97 99-61 0-95-36-95-99 0-62 34-99 96-99zm-1 164c35 0 45-28 45-65 0-40-10-65-43-65-34 0-45 26-45 65 0 36 10 65 43 65" id="bF"/><path fill="#b2b2b2" d="M190-63c-7 42-38 67-86 67-59 0-84-38-90-98-12-110 154-137 174-36l-49 2c-2-19-15-32-35-32-30 0-35 28-38 64-6 74 65 87 74 30" id="bG"/><path fill="#b2b2b2" d="M185-48c-13 30-37 53-82 52C43 2 14-33 14-96s30-98 90-98c62 0 83 45 84 108H66c0 31 8 55 39 56 18 0 30-7 34-22zm-45-69c5-46-57-63-70-21-2 6-4 13-4 21h74" id="bH"/><path fill="#b2b2b2" d="M137-138c1-29-70-34-71-4 15 46 118 7 119 86 1 83-164 76-172 9l43-7c4 19 20 25 44 25 33 8 57-30 24-41C81-84 22-81 20-136c-2-80 154-74 161-7" id="bI"/><g id="x"><use transform="matrix(0.0728395061728395,0,0,0.0728395061728395,0,0)" xlink:href="#bC"/><use transform="matrix(0.0728395061728395,0,0,0.0728395061728395,18.86543209876543,0)" xlink:href="#bD"/><use transform="matrix(0.0728395061728395,0,0,0.0728395061728395,34.81728395061728,0)" xlink:href="#bE"/><use transform="matrix(0.0728395061728395,0,0,0.0728395061728395,45.01481481481481,0)" xlink:href="#bF"/><use transform="matrix(0.0728395061728395,0,0,0.0728395061728395,60.966666666666654,0)" xlink:href="#bG"/><use transform="matrix(0.0728395061728395,0,0,0.0728395061728395,75.53456790123457,0)" xlink:href="#bH"/><use transform="matrix(0.0728395061728395,0,0,0.0728395061728395,90.10246913580247,0)" xlink:href="#bI"/><use transform="matrix(0.0728395061728395,0,0,0.0728395061728395,104.67037037037036,0)" xlink:href="#bI"/><use transform="matrix(0.0728395061728395,0,0,0.0728395061728395,119.23827160493828,0)" xlink:href="#bF"/><use transform="matrix(0.0728395061728395,0,0,0.0728395061728395,135.1901234567901,0)" xlink:href="#bE"/></g><path fill="#b2b2b2" d="M24-248c120-7 223 5 221 122C244-46 201 0 124 0H24v-248zM76-40c74 7 117-18 117-86 0-67-45-88-117-82v168" id="bJ"/><path fill="#b2b2b2" d="M25-224v-37h50v37H25zM25 0v-190h50V0H25" id="bK"/><path fill="#b2b2b2" d="M195-6C206 82 75 100 31 46c-4-6-6-13-8-21l49-6c3 16 16 24 34 25 40 0 42-37 40-79-11 22-30 35-61 35-53 0-70-43-70-97 0-56 18-96 73-97 30 0 46 14 59 34l2-30h47zm-90-29c32 0 41-27 41-63 0-35-9-62-40-62-32 0-39 29-40 63 0 36 9 62 39 62" id="bL"/><path fill="#b2b2b2" d="M135-194c87-1 58 113 63 194h-50c-7-57 23-157-34-157-59 0-34 97-39 157H25l-1-190h47c2 12-1 28 3 38 12-26 28-41 61-42" id="bM"/><g id="y"><use transform="matrix(0.0728395061728395,0,0,0.0728395061728395,0,0)" xlink:href="#bJ"/><use transform="matrix(0.0728395061728395,0,0,0.0728395061728395,18.86543209876543,0)" xlink:href="#bH"/><use transform="matrix(0.0728395061728395,0,0,0.0728395061728395,33.43333333333333,0)" xlink:href="#bI"/><use transform="matrix(0.0728395061728395,0,0,0.0728395061728395,48.00123456790123,0)" xlink:href="#bK"/><use transform="matrix(0.0728395061728395,0,0,0.0728395061728395,55.28518518518518,0)" xlink:href="#bL"/><use transform="matrix(0.0728395061728395,0,0,0.0728395061728395,71.23703703703703,0)" xlink:href="#bM"/></g><path fill="#b2b2b2" d="M76-208v77h127v40H76V0H24v-248h183v40H76" id="bN"/><path fill="#b2b2b2" d="M25 0v-261h50V0H25" id="bO"/><path fill="#b2b2b2" d="M231 0h-52l-39-155L100 0H48L-1-190h46L77-45c9-52 24-97 36-145h53l37 145 32-145h46" id="bP"/><g id="z"><use transform="matrix(0.0728395061728395,0,0,0.0728395061728395,0,0)" xlink:href="#bN"/><use transform="matrix(0.0728395061728395,0,0,0.0728395061728395,15.95185185185185,0)" xlink:href="#bO"/><use transform="matrix(0.0728395061728395,0,0,0.0728395061728395,23.235802469135802,0)" xlink:href="#bF"/><use transform="matrix(0.0728395061728395,0,0,0.0728395061728395,39.187654320987654,0)" xlink:href="#bP"/><use transform="matrix(0.0728395061728395,0,0,0.0728395061728395,59.582716049382704,0)" xlink:href="#bI"/></g><path fill="#b2b2b2" d="M249-152c-1-8 23-13 6-21-5-3-10-6-15-12-7 16-35 10-57 11v-55h136c11 0 10-7 2-11-9-4-15-12-20-18l-17 19H23l6 10h137v55c-27 0-57 3-71-10 10 51 1 118 4 176 10 8 18-5 16-20h117c1 5-3 15 3 16 5-2 13-3 14-7v-133zM115-38v-58h51v58h-51zm68 0v-58h49v58h-49zM56-158c-1-9 13-14 1-17-8-2-15-3-20-5 8 67-1 159 4 230 10-2 18-6 15-22h231c1 6-1 15 1 19 5-3 14-2 15-8v-197c-1-9 13-14 1-17-8-2-15-3-20-5 7 56 1 135 3 198H56v-176zm59 53v-60h51v60h-51zm68-60h49v60h-49v-60" id="bQ"/><use transform="matrix(0.04248971193415638,0,0,0.04248971193415638,0,0)" xlink:href="#bQ" id="A"/><path fill="#b2b2b2" d="M272 37V18H69v24H45v-239h94l11-46H26v-21h286v21H174l-11 46h133V37h-24zm-52-213V-3h52v-173h-52zM69-3h49v-173H69V-3zm71 0h57v-45h-57v45zm0-128h57v-45h-57v45zm0 63h57v-44h-57v44" id="bR"/><use transform="matrix(0.04248971193415638,0,0,0.04248971193415638,0,0)" xlink:href="#bR" id="B"/><path fill="#b2b2b2" d="M32 76v-337h29V76H32" id="bS"/><use transform="matrix(0.04248971193415638,0,0,0.04248971193415638,0,0)" xlink:href="#bS" id="C"/><path fill="#b2b2b2" d="M153-248C145-148 188 4 80 4 36 3 13-21 6-62l32-5c4 25 16 42 43 43 27 0 39-20 39-49v-147H72v-28h81" id="bT"/><path fill="#b2b2b2" d="M84 4C-5 8 30-112 23-190h32v120c0 31 7 50 39 49 72-2 45-101 50-169h31l1 190h-30c-1-10 1-25-2-33-11 22-28 36-60 37" id="bU"/><path fill="#b2b2b2" d="M24 0v-261h32V0H24" id="bV"/><path fill="#b2b2b2" d="M179-190L93 31C79 59 56 82 12 73V49c39 6 53-20 64-50L1-190h34L92-34l54-156h33" id="bW"/><g id="D"><use transform="matrix(0.04248971193415638,0,0,0.04248971193415638,0,0)" xlink:href="#bT"/><use transform="matrix(0.04248971193415638,0,0,0.04248971193415638,7.648148148148148,0)" xlink:href="#bU"/><use transform="matrix(0.04248971193415638,0,0,0.04248971193415638,16.14609053497942,0)" xlink:href="#bV"/><use transform="matrix(0.04248971193415638,0,0,0.04248971193415638,19.502777777777776,0)" xlink:href="#bW"/></g><path fill="#b2b2b2" d="M27 0v-27h64v-190l-56 39v-29l58-41h29v221h61V0H27" id="bX"/><path fill="#b2b2b2" d="M68-38c1 34 0 65-14 84H32c9-13 17-26 17-46H33v-38h35" id="bY"/><g id="E"><use transform="matrix(0.04248971193415638,0,0,0.04248971193415638,0,0)" xlink:href="#bX"/><use transform="matrix(0.04248971193415638,0,0,0.04248971193415638,8.497942386831275,0)" xlink:href="#bY"/></g><path fill="#b2b2b2" d="M101-251c82-7 93 87 43 132L82-64C71-53 59-42 53-27h129V0H18c2-99 128-94 128-182 0-28-16-43-45-43s-46 15-49 41l-32-3c6-41 34-60 81-64" id="bZ"/><path fill="#b2b2b2" d="M101-251c68 0 85 55 85 127S166 4 100 4C33 4 14-52 14-124c0-73 17-127 87-127zm-1 229c47 0 54-49 54-102s-4-102-53-102c-51 0-55 48-55 102 0 53 5 102 54 102" id="ca"/><g id="F"><use transform="matrix(0.04248971193415638,0,0,0.04248971193415638,0,0)" xlink:href="#bZ"/><use transform="matrix(0.04248971193415638,0,0,0.04248971193415638,8.497942386831275,0)" xlink:href="#ca"/><use transform="matrix(0.04248971193415638,0,0,0.04248971193415638,16.99588477366255,0)" xlink:href="#bZ"/><use transform="matrix(0.04248971193415638,0,0,0.04248971193415638,25.493827160493822,0)" xlink:href="#ca"/></g><path fill="#fff" d="M212-179c-10-28-35-45-73-45-59 0-87 40-87 99 0 60 29 101 89 101 43 0 62-24 78-52l27 14C228-24 195 4 139 4 59 4 22-46 18-125c-6-104 99-153 187-111 19 9 31 26 39 46" id="cb"/><path fill="#fff" d="M106-169C34-169 62-67 57 0H25v-261h32l-1 103c12-21 28-36 61-36 89 0 53 116 60 194h-32v-121c2-32-8-49-39-48" id="cc"/><path fill="#fff" d="M126-127c33 6 58 20 58 59 0 88-139 92-164 29-3-8-5-16-6-25l32-3c6 27 21 44 54 44 32 0 52-15 52-46 0-38-36-46-79-43v-28c39 1 72-4 72-42 0-27-17-43-46-43-28 0-47 15-49 41l-32-3c6-42 35-63 81-64 48-1 79 21 79 65 0 36-21 52-52 59" id="cd"/><g id="G"><use transform="matrix(0.04938271604938272,0,0,0.04938271604938272,0,0)" xlink:href="#cb"/><use transform="matrix(0.04938271604938272,0,0,0.04938271604938272,12.790123456790125,0)" xlink:href="#cc"/><use transform="matrix(0.04938271604938272,0,0,0.04938271604938272,22.66666666666667,0)" xlink:href="#aW"/><use transform="matrix(0.04938271604938272,0,0,0.04938271604938272,26.567901234567902,0)" xlink:href="#aQ"/><use transform="matrix(0.04938271604938272,0,0,0.04938271604938272,35.4567901234568,0)" xlink:href="#aN"/><use transform="matrix(0.04938271604938272,0,0,0.04938271604938272,45.33333333333334,0)" xlink:href="#ba"/><use transform="matrix(0.04938271604938272,0,0,0.04938271604938272,49.23456790123458,0)" xlink:href="#cd"/></g><path fill="#fff" d="M160-131c35 5 61 23 61 61C221 17 115-2 30 0v-248c76 3 177-17 177 60 0 33-19 50-47 57zm-97-11c50-1 110 9 110-42 0-47-63-36-110-37v79zm0 115c55-2 124 14 124-45 0-56-70-42-124-44v89" id="ce"/><path fill="#fff" d="M143 4C61 4 22-44 18-125c-5-107 100-154 193-111 17 8 29 25 37 43l-32 9c-13-25-37-40-76-40-61 0-88 39-88 99 0 61 29 100 91 101 35 0 62-11 79-27v-45h-74v-28h105v86C228-13 192 4 143 4" id="cf"/><path fill="#fff" d="M87 75C49 33 22-17 22-94c0-76 28-126 65-167h31c-38 41-64 92-64 168S80 34 118 75H87" id="cg"/><path fill="#fff" d="M143 0L79-87 56-68V0H24v-261h32v163l83-92h37l-77 82L181 0h-38" id="ch"/><g id="H"><use transform="matrix(0.04938271604938272,0,0,0.04938271604938272,0,0)" xlink:href="#ce"/><use transform="matrix(0.04938271604938272,0,0,0.04938271604938272,11.851851851851853,0)" xlink:href="#be"/><use transform="matrix(0.04938271604938272,0,0,0.04938271604938272,23.703703703703706,0)" xlink:href="#cf"/><use transform="matrix(0.04938271604938272,0,0,0.04938271604938272,37.53086419753087,0)" xlink:href="#cg"/><use transform="matrix(0.04938271604938272,0,0,0.04938271604938272,43.40740740740741,0)" xlink:href="#ce"/><use transform="matrix(0.04938271604938272,0,0,0.04938271604938272,55.25925925925927,0)" xlink:href="#aN"/><use transform="matrix(0.04938271604938272,0,0,0.04938271604938272,65.13580246913581,0)" xlink:href="#aU"/><use transform="matrix(0.04938271604938272,0,0,0.04938271604938272,71.01234567901236,0)" xlink:href="#ch"/><use transform="matrix(0.04938271604938272,0,0,0.04938271604938272,79.90123456790124,0)" xlink:href="#aN"/><use transform="matrix(0.04938271604938272,0,0,0.04938271604938272,89.77777777777779,0)" xlink:href="#ba"/><use transform="matrix(0.04938271604938272,0,0,0.04938271604938272,93.67901234567903,0)" xlink:href="#aN"/><use transform="matrix(0.04938271604938272,0,0,0.04938271604938272,103.55555555555557,0)" xlink:href="#br"/></g><path fill="#fff" d="M177-190C167-65 218 103 67 71c-23-6-38-20-44-43l32-5c15 47 100 32 89-28v-30C133-14 115 1 83 1 29 1 15-40 15-95c0-56 16-97 71-98 29-1 48 16 59 35 1-10 0-23 2-32h30zM94-22c36 0 50-32 50-73 0-42-14-75-50-75-39 0-46 34-46 75s6 73 46 73" id="ci"/><g id="I"><use transform="matrix(0.04938271604938272,0,0,0.04938271604938272,0,0)" xlink:href="#be"/><use transform="matrix(0.04938271604938272,0,0,0.04938271604938272,11.851851851851853,0)" xlink:href="#aX"/><use transform="matrix(0.04938271604938272,0,0,0.04938271604938272,21.7283950617284,0)" xlink:href="#aY"/><use transform="matrix(0.04938271604938272,0,0,0.04938271604938272,31.60493827160494,0)" xlink:href="#ba"/><use transform="matrix(0.04938271604938272,0,0,0.04938271604938272,35.50617283950618,0)" xlink:href="#aT"/><use transform="matrix(0.04938271604938272,0,0,0.04938271604938272,45.38271604938272,0)" xlink:href="#ci"/></g><path fill="#fff" d="M33-261c38 41 65 92 65 168S71 34 33 75H2C39 34 66-17 66-93S39-220 2-261h31" id="cj"/><g id="J"><use transform="matrix(0.04938271604938272,0,0,0.04938271604938272,0,0)" xlink:href="#cf"/><use transform="matrix(0.04938271604938272,0,0,0.04938271604938272,13.827160493827162,0)" xlink:href="#aN"/><use transform="matrix(0.04938271604938272,0,0,0.04938271604938272,23.703703703703706,0)" xlink:href="#aX"/><use transform="matrix(0.04938271604938272,0,0,0.04938271604938272,33.580246913580254,0)" xlink:href="#aN"/><use transform="matrix(0.04938271604938272,0,0,0.04938271604938272,43.4567901234568,0)" xlink:href="#aU"/><use transform="matrix(0.04938271604938272,0,0,0.04938271604938272,49.33333333333334,0)" xlink:href="#aY"/><use transform="matrix(0.04938271604938272,0,0,0.04938271604938272,59.209876543209894,0)" xlink:href="#aR"/><use transform="matrix(0.04938271604938272,0,0,0.04938271604938272,64.14814814814815,0)" xlink:href="#aT"/><use transform="matrix(0.04938271604938272,0,0,0.04938271604938272,74.0246913580247,0)" xlink:href="#aU"/><use transform="matrix(0.04938271604938272,0,0,0.04938271604938272,79.90123456790124,0)" xlink:href="#cj"/></g><path fill="#fff" d="M63-220v92h138v28H63V0H30v-248h175v28H63" id="ck"/><path fill="#fff" d="M210-169c-67 3-38 105-44 169h-31v-121c0-29-5-50-35-48C34-165 62-65 56 0H25l-1-190h30c1 10-1 24 2 32 10-44 99-50 107 0 11-21 27-35 58-36 85-2 47 119 55 194h-31v-121c0-29-5-49-35-48" id="cl"/><g id="K"><use transform="matrix(0.04938271604938272,0,0,0.04938271604938272,0,0)" xlink:href="#ck"/><use transform="matrix(0.04938271604938272,0,0,0.04938271604938272,10.814814814814815,0)" xlink:href="#aW"/><use transform="matrix(0.04938271604938272,0,0,0.04938271604938272,14.71604938271605,0)" xlink:href="#aU"/><use transform="matrix(0.04938271604938272,0,0,0.04938271604938272,20.592592592592595,0)" xlink:href="#aN"/><use transform="matrix(0.04938271604938272,0,0,0.04938271604938272,30.46913580246914,0)" xlink:href="#aQ"/><use transform="matrix(0.04938271604938272,0,0,0.04938271604938272,39.358024691358025,0)" xlink:href="#aW"/><use transform="matrix(0.04938271604938272,0,0,0.04938271604938272,43.25925925925926,0)" xlink:href="#cl"/><use transform="matrix(0.04938271604938272,0,0,0.04938271604938272,58.0246913580247,0)" xlink:href="#cg"/><use transform="matrix(0.04938271604938272,0,0,0.04938271604938272,63.90123456790124,0)" xlink:href="#be"/></g><g id="L"><use transform="matrix(0.04938271604938272,0,0,0.04938271604938272,0,0)" xlink:href="#cb"/><use transform="matrix(0.04938271604938272,0,0,0.04938271604938272,12.790123456790125,0)" xlink:href="#ba"/><use transform="matrix(0.04938271604938272,0,0,0.04938271604938272,16.69135802469136,0)" xlink:href="#aT"/><use transform="matrix(0.04938271604938272,0,0,0.04938271604938272,26.567901234567902,0)" xlink:href="#aP"/><use transform="matrix(0.04938271604938272,0,0,0.04938271604938272,36.44444444444445,0)" xlink:href="#aV"/></g><path fill="#fff" d="M115-194c53 0 69 39 70 98 0 66-23 100-70 100C84 3 66-7 56-30L54 0H23l1-261h32v101c10-23 28-34 59-34zm-8 174c40 0 45-34 45-75 0-40-5-75-45-74-42 0-51 32-51 76 0 43 10 73 51 73" id="cm"/><g id="M"><use transform="matrix(0.04938271604938272,0,0,0.04938271604938272,0,0)" xlink:href="#cm"/><use transform="matrix(0.04938271604938272,0,0,0.04938271604938272,9.876543209876544,0)" xlink:href="#aY"/><use transform="matrix(0.04938271604938272,0,0,0.04938271604938272,19.75308641975309,0)" xlink:href="#aQ"/><use transform="matrix(0.04938271604938272,0,0,0.04938271604938272,28.641975308641978,0)" xlink:href="#aN"/><use transform="matrix(0.04938271604938272,0,0,0.04938271604938272,38.51851851851852,0)" xlink:href="#aV"/></g><path fill="#fff" d="M30-248c87 1 191-15 191 75 0 78-77 80-158 76V0H30v-248zm33 125c57 0 124 11 124-50 0-59-68-47-124-48v98" id="cn"/><g id="N"><use transform="matrix(0.04938271604938272,0,0,0.04938271604938272,0,0)" xlink:href="#ck"/><use transform="matrix(0.04938271604938272,0,0,0.04938271604938272,10.814814814814815,0)" xlink:href="#cf"/><use transform="matrix(0.04938271604938272,0,0,0.04938271604938272,24.641975308641975,0)" xlink:href="#cn"/><use transform="matrix(0.04938271604938272,0,0,0.04938271604938272,35.160493827160494,0)" xlink:href="#be"/></g><g id="O"><use transform="matrix(0.04938271604938272,0,0,0.04938271604938272,0,0)" xlink:href="#aZ"/><use transform="matrix(0.04938271604938272,0,0,0.04938271604938272,9.876543209876544,0)" xlink:href="#ba"/><use transform="matrix(0.04938271604938272,0,0,0.04938271604938272,13.777777777777779,0)" xlink:href="#aY"/><use transform="matrix(0.04938271604938272,0,0,0.04938271604938272,23.654320987654323,0)" xlink:href="#aR"/><use transform="matrix(0.04938271604938272,0,0,0.04938271604938272,28.592592592592595,0)" xlink:href="#aS"/><use transform="matrix(0.04938271604938272,0,0,0.04938271604938272,33.53086419753087,0)" xlink:href="#aT"/><use transform="matrix(0.04938271604938272,0,0,0.04938271604938272,43.40740740740741,0)" xlink:href="#aU"/><use transform="matrix(0.04938271604938272,0,0,0.04938271604938272,49.283950617283956,0)" xlink:href="#cl"/><use transform="matrix(0.04938271604938272,0,0,0.04938271604938272,64.0493827160494,0)" xlink:href="#cj"/></g><g id="P"><use transform="matrix(0.04320987654320988,0,0,0.04320987654320988,0,0)" xlink:href="#aK"/><use transform="matrix(0.04320987654320988,0,0,0.04320987654320988,4.320987654320988,0)" xlink:href="#au"/><use transform="matrix(0.04320987654320988,0,0,0.04320987654320988,9.462962962962964,0)" xlink:href="#as"/><use transform="matrix(0.04320987654320988,0,0,0.04320987654320988,18.10493827160494,0)" xlink:href="#aw"/><use transform="matrix(0.04320987654320988,0,0,0.04320987654320988,24.154320987654323,0)" xlink:href="#aI"/><use transform="matrix(0.04320987654320988,0,0,0.04320987654320988,32.7962962962963,0)" xlink:href="#au"/><use transform="matrix(0.04320987654320988,0,0,0.04320987654320988,37.93827160493827,0)" xlink:href="#as"/></g><path d="M30-248c87 1 191-15 191 75 0 78-77 80-158 76V0H30v-248zm33 125c57 0 124 11 124-50 0-59-68-47-124-48v98" id="co"/><path d="M114-163C36-179 61-72 57 0H25l-1-190h30c1 12-1 29 2 39 6-27 23-49 58-41v29" id="cp"/><path d="M100-194c62-1 85 37 85 99 1 63-27 99-86 99S16-35 15-95c0-66 28-99 85-99zM99-20c44 1 53-31 53-75 0-43-8-75-51-75s-53 32-53 75 10 74 51 75" id="cq"/><path d="M96-169c-40 0-48 33-48 73s9 75 48 75c24 0 41-14 43-38l32 2c-6 37-31 61-74 61-59 0-76-41-82-99-10-93 101-131 147-64 4 7 5 14 7 22l-32 3c-4-21-16-35-41-35" id="cr"/><path d="M100-194c63 0 86 42 84 106H49c0 40 14 67 53 68 26 1 43-12 49-29l28 8c-11 28-37 45-77 45C44 4 14-33 15-96c1-61 26-98 85-98zm52 81c6-60-76-77-97-28-3 7-6 17-6 28h103" id="cs"/><path d="M85-194c31 0 48 13 60 33l-1-100h32l1 261h-30c-2-10 0-23-3-31C134-8 116 4 85 4 32 4 16-35 15-94c0-66 23-100 70-100zm9 24c-40 0-46 34-46 75 0 40 6 74 45 74 42 0 51-32 51-76 0-42-9-74-50-73" id="ct"/><g id="Q"><use transform="matrix(0.05,0,0,0.05,0,0)" xlink:href="#co"/><use transform="matrix(0.05,0,0,0.05,12,0)" xlink:href="#cp"/><use transform="matrix(0.05,0,0,0.05,17.95,0)" xlink:href="#cq"/><use transform="matrix(0.05,0,0,0.05,27.950000000000003,0)" xlink:href="#cr"/><use transform="matrix(0.05,0,0,0.05,36.95,0)" xlink:href="#cs"/><use transform="matrix(0.05,0,0,0.05,46.95,0)" xlink:href="#cs"/><use transform="matrix(0.05,0,0,0.05,56.95,0)" xlink:href="#ct"/></g><path d="M145-31C134-9 116 4 85 4 32 4 16-35 15-94c0-59 17-99 70-100 32-1 48 14 60 33 0-11-1-24 2-32h30l-1 268h-32zM93-21c41 0 51-33 51-76s-8-73-50-73c-40 0-46 35-46 75s5 74 45 74" id="cu"/><path d="M84 4C-5 8 30-112 23-190h32v120c0 31 7 50 39 49 72-2 45-101 50-169h31l1 190h-30c-1-10 1-25-2-33-11 22-28 36-60 37" id="cv"/><path d="M135-143c-3-34-86-38-87 0 15 53 115 12 119 90S17 21 10-45l28-5c4 36 97 45 98 0-10-56-113-15-118-90-4-57 82-63 122-42 12 7 21 19 24 35" id="cw"/><path d="M59-47c-2 24 18 29 38 22v24C64 9 27 4 27-40v-127H5v-23h24l9-43h21v43h35v23H59v120" id="cx"/><g id="R"><use transform="matrix(0.05,0,0,0.05,0,0)" xlink:href="#cp"/><use transform="matrix(0.05,0,0,0.05,5.95,0)" xlink:href="#cs"/><use transform="matrix(0.05,0,0,0.05,15.949999999999998,0)" xlink:href="#cu"/><use transform="matrix(0.05,0,0,0.05,25.950000000000003,0)" xlink:href="#cv"/><use transform="matrix(0.05,0,0,0.05,35.95,0)" xlink:href="#cs"/><use transform="matrix(0.05,0,0,0.05,45.95,0)" xlink:href="#cw"/><use transform="matrix(0.05,0,0,0.05,54.95,0)" xlink:href="#cx"/></g><g id="S"><use transform="matrix(0.05,0,0,0.05,0,0)" xlink:href="#cx"/><use transform="matrix(0.05,0,0,0.05,5,0)" xlink:href="#cq"/></g><path d="M33 0v-248h34V0H33" id="cy"/><g id="T"><use transform="matrix(0.05,0,0,0.05,0,0)" xlink:href="#cy"/><use transform="matrix(0.05,0,0,0.05,5,0)" xlink:href="#co"/></g><path d="M177-190C167-65 218 103 67 71c-23-6-38-20-44-43l32-5c15 47 100 32 89-28v-30C133-14 115 1 83 1 29 1 15-40 15-95c0-56 16-97 71-98 29-1 48 16 59 35 1-10 0-23 2-32h30zM94-22c36 0 50-32 50-73 0-42-14-75-50-75-39 0-46 34-46 75s6 73 46 73" id="cz"/><path d="M115-194c55 1 70 41 70 98S169 2 115 4C84 4 66-9 55-30l1 105H24l-1-265h31l2 30c10-21 28-34 59-34zm-8 174c40 0 45-34 45-75s-6-73-45-74c-42 0-51 32-51 76 0 43 10 73 51 73" id="cA"/><g id="U"><use transform="matrix(0.05,0,0,0.05,0,0)" xlink:href="#cz"/><use transform="matrix(0.05,0,0,0.05,10,0)" xlink:href="#cp"/><use transform="matrix(0.05,0,0,0.05,15.949999999999998,0)" xlink:href="#cq"/><use transform="matrix(0.05,0,0,0.05,25.950000000000003,0)" xlink:href="#cv"/><use transform="matrix(0.05,0,0,0.05,35.95,0)" xlink:href="#cA"/></g><path fill="#fff" d="M108 0H70L1-190h34L89-25l56-165h34" id="cB"/><g id="V"><use transform="matrix(0.05,0,0,0.05,0,0)" xlink:href="#aU"/><use transform="matrix(0.05,0,0,0.05,5.95,0)" xlink:href="#aW"/><use transform="matrix(0.05,0,0,0.05,9.9,0)" xlink:href="#aQ"/><use transform="matrix(0.05,0,0,0.05,18.9,0)" xlink:href="#bb"/><use transform="matrix(0.05,0,0,0.05,27.899999999999995,0)" xlink:href="#cB"/></g><path fill="#fff" d="M234-2c-28 10-62 0-77-18C117 19 8 12 13-65c3-43 29-61 60-76-25-40-17-114 47-108 35 3 59 15 59 50 0 44-40 53-71 69 14 26 32 50 51 72 14-21 24-43 30-72l26 8c-9 33-21 57-38 82 13 13 33 22 57 15v23zM97-151c25-10 52-18 56-48-1-18-13-29-33-29-42 0-39 50-23 77zM42-66c-3 51 71 58 98 28-20-24-41-51-56-80-23 10-40 24-42 52" id="cC"/><use transform="matrix(0.05,0,0,0.05,0,0)" xlink:href="#cC" id="W"/><g id="X"><use transform="matrix(0.05,0,0,0.05,0,0)" xlink:href="#aT"/><use transform="matrix(0.05,0,0,0.05,10,0)" xlink:href="#aR"/><use transform="matrix(0.05,0,0,0.05,15,0)" xlink:href="#cc"/><use transform="matrix(0.05,0,0,0.05,25,0)" xlink:href="#aN"/><use transform="matrix(0.05,0,0,0.05,35,0)" xlink:href="#aU"/></g><path fill="#fff" d="M33 0v-248h34V0H33" id="cD"/><path fill="#fff" d="M47-170H22l-4-78h33" id="cE"/><g id="Y"><use transform="matrix(0.05,0,0,0.05,0,0)" xlink:href="#cD"/><use transform="matrix(0.05,0,0,0.05,5,0)" xlink:href="#cn"/><use transform="matrix(0.05,0,0,0.05,17,0)" xlink:href="#cE"/><use transform="matrix(0.05,0,0,0.05,20.4,0)" xlink:href="#aQ"/></g><g id="Z"><use transform="matrix(0.05,0,0,0.05,0,0)" xlink:href="#aS"/><use transform="matrix(0.05,0,0,0.05,5,0)" xlink:href="#aU"/><use transform="matrix(0.05,0,0,0.05,10.95,0)" xlink:href="#aT"/><use transform="matrix(0.05,0,0,0.05,20.95,0)" xlink:href="#cl"/></g><g id="aa"><use transform="matrix(0.05,0,0,0.05,0,0)" xlink:href="#bb"/><use transform="matrix(0.05,0,0,0.05,9,0)" xlink:href="#cc"/><use transform="matrix(0.05,0,0,0.05,19,0)" xlink:href="#aW"/><use transform="matrix(0.05,0,0,0.05,22.95,0)" xlink:href="#aZ"/><use transform="matrix(0.05,0,0,0.05,32.95,0)" xlink:href="#br"/><use transform="matrix(0.05,0,0,0.05,41.95,0)" xlink:href="#aY"/><use transform="matrix(0.05,0,0,0.05,51.95,0)" xlink:href="#aU"/><use transform="matrix(0.05,0,0,0.05,57.900000000000006,0)" xlink:href="#aV"/></g><g id="ab"><use transform="matrix(0.05,0,0,0.05,0,0)" xlink:href="#bb"/><use transform="matrix(0.05,0,0,0.05,9,0)" xlink:href="#aT"/><use transform="matrix(0.05,0,0,0.05,19,0)" xlink:href="#aU"/><use transform="matrix(0.05,0,0,0.05,24.95,0)" xlink:href="#aY"/></g><path fill="#fff" d="M127-220V0H93v-220H8v-28h204v28h-85" id="cF"/><path fill="#fff" d="M0 4l72-265h28L28 4H0" id="cG"/><g id="ac"><use transform="matrix(0.04938271604938272,0,0,0.04938271604938272,0,0)" xlink:href="#aS"/><use transform="matrix(0.04938271604938272,0,0,0.04938271604938272,4.938271604938272,0)" xlink:href="#aW"/><use transform="matrix(0.04938271604938272,0,0,0.04938271604938272,8.839506172839506,0)" xlink:href="#aU"/><use transform="matrix(0.04938271604938272,0,0,0.04938271604938272,14.71604938271605,0)" xlink:href="#aM"/><use transform="matrix(0.04938271604938272,0,0,0.04938271604938272,27.160493827160497,0)" xlink:href="#cF"/><use transform="matrix(0.04938271604938272,0,0,0.04938271604938272,37.97530864197531,0)" xlink:href="#bd"/><use transform="matrix(0.04938271604938272,0,0,0.04938271604938272,47.851851851851855,0)" xlink:href="#cG"/><use transform="matrix(0.04938271604938272,0,0,0.04938271604938272,52.79012345679013,0)" xlink:href="#cB"/><use transform="matrix(0.04938271604938272,0,0,0.04938271604938272,61.67901234567902,0)" xlink:href="#aN"/><use transform="matrix(0.04938271604938272,0,0,0.04938271604938272,71.55555555555556,0)" xlink:href="#aU"/><use transform="matrix(0.04938271604938272,0,0,0.04938271604938272,77.4320987654321,0)" xlink:href="#aW"/><use transform="matrix(0.04938271604938272,0,0,0.04938271604938272,81.33333333333334,0)" xlink:href="#ba"/><use transform="matrix(0.04938271604938272,0,0,0.04938271604938272,85.23456790123458,0)" xlink:href="#aT"/><use transform="matrix(0.04938271604938272,0,0,0.04938271604938272,95.11111111111113,0)" xlink:href="#ci"/></g><path fill="#fff" d="M197 0v-115H63V0H30v-248h33v105h134v-105h34V0h-34" id="cH"/><g id="ad"><use transform="matrix(0.04938271604938272,0,0,0.04938271604938272,0,0)" xlink:href="#cH"/><use transform="matrix(0.04938271604938272,0,0,0.04938271604938272,12.790123456790125,0)" xlink:href="#aY"/><use transform="matrix(0.04938271604938272,0,0,0.04938271604938272,22.66666666666667,0)" xlink:href="#cl"/><use transform="matrix(0.04938271604938272,0,0,0.04938271604938272,37.4320987654321,0)" xlink:href="#cl"/><use transform="matrix(0.04938271604938272,0,0,0.04938271604938272,52.19753086419754,0)" xlink:href="#aN"/><use transform="matrix(0.04938271604938272,0,0,0.04938271604938272,62.074074074074076,0)" xlink:href="#aU"/></g><g id="ae"><use transform="matrix(0.05,0,0,0.05,0,0)" xlink:href="#aM"/><use transform="matrix(0.05,0,0,0.05,12.950000000000001,0)" xlink:href="#aN"/><use transform="matrix(0.05,0,0,0.05,22.950000000000003,0)" xlink:href="#bb"/><use transform="matrix(0.05,0,0,0.05,31.950000000000003,0)" xlink:href="#aN"/><use transform="matrix(0.05,0,0,0.05,41.95,0)" xlink:href="#aW"/><use transform="matrix(0.05,0,0,0.05,45.900000000000006,0)" xlink:href="#cB"/><use transform="matrix(0.05,0,0,0.05,54.900000000000006,0)" xlink:href="#aN"/></g><g id="af"><use transform="matrix(0.05,0,0,0.05,0,0)" xlink:href="#bd"/><use transform="matrix(0.05,0,0,0.05,10,0)" xlink:href="#aY"/><use transform="matrix(0.05,0,0,0.05,20,0)" xlink:href="#br"/><use transform="matrix(0.05,0,0,0.05,29,0)" xlink:href="#aT"/><use transform="matrix(0.05,0,0,0.05,39,0)" xlink:href="#aP"/><use transform="matrix(0.05,0,0,0.05,49,0)" xlink:href="#aR"/></g><path d="M205 0l-28-72H64L36 0H1l101-248h38L239 0h-34zm-38-99l-47-123c-12 45-31 82-46 123h93" id="cI"/><path d="M24-231v-30h32v30H24zM-9 49c24 4 33-6 33-30v-209h32V24c2 40-23 58-65 49V49" id="cJ"/><path d="M210-169c-67 3-38 105-44 169h-31v-121c0-29-5-50-35-48C34-165 62-65 56 0H25l-1-190h30c1 10-1 24 2 32 10-44 99-50 107 0 11-21 27-35 58-36 85-2 47 119 55 194h-31v-121c0-29-5-49-35-48" id="cK"/><path d="M117-194c89-4 53 116 60 194h-32v-121c0-31-8-49-39-48C34-167 62-67 57 0H25l-1-190h30c1 10-1 24 2 32 11-22 29-35 61-36" id="cL"/><g id="ag"><use transform="matrix(0.05,0,0,0.05,0,0)" xlink:href="#cI"/><use transform="matrix(0.05,0,0,0.05,12,0)" xlink:href="#ct"/><use transform="matrix(0.05,0,0,0.05,22,0)" xlink:href="#cJ"/><use transform="matrix(0.05,0,0,0.05,25.950000000000003,0)" xlink:href="#cv"/><use transform="matrix(0.05,0,0,0.05,35.95,0)" xlink:href="#cw"/><use transform="matrix(0.05,0,0,0.05,44.95,0)" xlink:href="#cx"/><use transform="matrix(0.05,0,0,0.05,49.95,0)" xlink:href="#cK"/><use transform="matrix(0.05,0,0,0.05,64.9,0)" xlink:href="#cs"/><use transform="matrix(0.05,0,0,0.05,74.9,0)" xlink:href="#cL"/><use transform="matrix(0.05,0,0,0.05,84.9,0)" xlink:href="#cx"/></g><g id="ah"><use transform="matrix(0.05,0,0,0.05,0,0)" xlink:href="#cq"/><use transform="matrix(0.05,0,0,0.05,10,0)" xlink:href="#cL"/></g><path d="M141 0L90-78 38 0H4l68-98-65-92h35l48 74 47-74h35l-64 92 68 98h-35" id="cM"/><path d="M24-231v-30h32v30H24zM24 0v-190h32V0H24" id="cN"/><g id="ai"><use transform="matrix(0.05,0,0,0.05,0,0)" xlink:href="#cs"/><use transform="matrix(0.05,0,0,0.05,10,0)" xlink:href="#cM"/><use transform="matrix(0.05,0,0,0.05,19,0)" xlink:href="#cw"/><use transform="matrix(0.05,0,0,0.05,28,0)" xlink:href="#cN"/><use transform="matrix(0.05,0,0,0.05,31.950000000000003,0)" xlink:href="#cx"/><use transform="matrix(0.05,0,0,0.05,36.95,0)" xlink:href="#cN"/><use transform="matrix(0.05,0,0,0.05,40.900000000000006,0)" xlink:href="#cL"/><use transform="matrix(0.05,0,0,0.05,50.900000000000006,0)" xlink:href="#cz"/></g><g id="aj"><use transform="matrix(0.05,0,0,0.05,0,0)" xlink:href="#cy"/><use transform="matrix(0.05,0,0,0.05,5,0)" xlink:href="#co"/></g><path fill="#fff" d="M140-251c81 0 123 46 123 126C263-46 219 4 140 4 59 4 17-45 17-125s42-126 123-126zm0 227c63 0 89-41 89-101s-29-99-89-99c-61 0-89 39-89 99S79-25 140-24" id="cO"/><g id="ak"><use transform="matrix(0.04938271604938272,0,0,0.04938271604938272,0,0)" xlink:href="#cO"/><use transform="matrix(0.04938271604938272,0,0,0.04938271604938272,13.827160493827162,0)" xlink:href="#aZ"/><use transform="matrix(0.04938271604938272,0,0,0.04938271604938272,23.703703703703706,0)" xlink:href="#aN"/><use transform="matrix(0.04938271604938272,0,0,0.04938271604938272,33.580246913580254,0)" xlink:href="#aX"/><use transform="matrix(0.04938271604938272,0,0,0.04938271604938272,43.4567901234568,0)" xlink:href="#aM"/><use transform="matrix(0.04938271604938272,0,0,0.04938271604938272,56.24691358024693,0)" xlink:href="#cO"/><use transform="matrix(0.04938271604938272,0,0,0.04938271604938272,70.07407407407409,0)" xlink:href="#be"/><use transform="matrix(0.04938271604938272,0,0,0.04938271604938272,81.92592592592594,0)" xlink:href="#bc"/><use transform="matrix(0.04938271604938272,0,0,0.04938271604938272,94.71604938271606,0)" xlink:href="#cg"/><use transform="matrix(0.04938271604938272,0,0,0.04938271604938272,100.59259259259261,0)" xlink:href="#cO"/><use transform="matrix(0.04938271604938272,0,0,0.04938271604938272,114.41975308641979,0)" xlink:href="#aZ"/><use transform="matrix(0.04938271604938272,0,0,0.04938271604938272,124.29629629629633,0)" xlink:href="#aN"/><use transform="matrix(0.04938271604938272,0,0,0.04938271604938272,134.17283950617286,0)" xlink:href="#aX"/></g><path fill="#fff" d="M185-189c-5-48-123-54-124 2 14 75 158 14 163 119 3 78-121 87-175 55-17-10-28-26-33-46l33-7c5 56 141 63 141-1 0-78-155-14-162-118-5-82 145-84 179-34 5 7 8 16 11 25" id="cP"/><g id="al"><use transform="matrix(0.04938271604938272,0,0,0.04938271604938272,0,0)" xlink:href="#cP"/><use transform="matrix(0.04938271604938272,0,0,0.04938271604938272,11.851851851851853,0)" xlink:href="#aT"/><use transform="matrix(0.04938271604938272,0,0,0.04938271604938272,21.7283950617284,0)" xlink:href="#aP"/><use transform="matrix(0.04938271604938272,0,0,0.04938271604938272,31.60493827160494,0)" xlink:href="#aU"/><use transform="matrix(0.04938271604938272,0,0,0.04938271604938272,37.48148148148149,0)" xlink:href="#bb"/><use transform="matrix(0.04938271604938272,0,0,0.04938271604938272,46.37037037037038,0)" xlink:href="#aN"/><use transform="matrix(0.04938271604938272,0,0,0.04938271604938272,56.24691358024693,0)" xlink:href="#cj"/></g><g id="am"><use transform="matrix(0.05,0,0,0.05,0,0)" xlink:href="#cz"/><use transform="matrix(0.05,0,0,0.05,10,0)" xlink:href="#ct"/><use transform="matrix(0.05,0,0,0.05,20,0)" xlink:href="#cw"/></g><g id="an"><use transform="matrix(0.04938271604938272,0,0,0.04938271604938272,0,0)" xlink:href="#bb"/><use transform="matrix(0.04938271604938272,0,0,0.04938271604938272,8.88888888888889,0)" xlink:href="#aT"/><use transform="matrix(0.04938271604938272,0,0,0.04938271604938272,18.765432098765434,0)" xlink:href="#bb"/><use transform="matrix(0.04938271604938272,0,0,0.04938271604938272,27.654320987654323,0)" xlink:href="#aT"/><use transform="matrix(0.04938271604938272,0,0,0.04938271604938272,37.53086419753087,0)" xlink:href="#aR"/><use transform="matrix(0.04938271604938272,0,0,0.04938271604938272,42.46913580246914,0)" xlink:href="#cm"/></g><path d="M141-36C126-15 110 5 73 4 37 3 15-17 15-53c-1-64 63-63 125-63 3-35-9-54-41-54-24 1-41 7-42 31l-33-3c5-37 33-52 76-52 45 0 72 20 72 64v82c-1 20 7 32 28 27v20c-31 9-61-2-59-35zM48-53c0 20 12 33 32 33 41-3 63-29 60-74-43 2-92-5-92 41" id="cQ"/><g id="ao"><use transform="matrix(0.05,0,0,0.05,0,0)" xlink:href="#cy"/><use transform="matrix(0.05,0,0,0.05,5,0)" xlink:href="#cx"/><use transform="matrix(0.05,0,0,0.05,10,0)" xlink:href="#cs"/><use transform="matrix(0.05,0,0,0.05,20,0)" xlink:href="#cp"/><use transform="matrix(0.05,0,0,0.05,25.950000000000003,0)" xlink:href="#cQ"/><use transform="matrix(0.05,0,0,0.05,35.95,0)" xlink:href="#cx"/><use transform="matrix(0.05,0,0,0.05,40.95,0)" xlink:href="#cs"/></g></defs></g></svg>